<svg xmlns="http://www.w3.org/2000/svg" xmlns:xlink="http://www.w3.org/1999/xlink" width="500" zoomAndPan="magnify" viewBox="0 0 375 374.999991" height="500" preserveAspectRatio="xMidYMid meet" version="1.0"><defs><clipPath id="d8fbe54bae"><path d="M 7.246094 6.265625 L 367.996094 6.265625 L 367.996094 368.515625 L 7.246094 368.515625 Z M 7.246094 6.265625 " clip-rule="nonzero"/></clipPath></defs><g clip-path="url(#d8fbe54bae)"><path fill="#253c75" d="M 356.765625 353.425781 C 356.765625 355.792969 354.835938 357.726562 352.464844 357.726562 L 294.898438 357.726562 C 292.53125 357.726562 290.601562 355.792969 290.601562 353.425781 L 290.601562 252.617188 C 290.601562 247.539062 280.222656 215.890625 275.445312 207.863281 C 274.070312 205.554688 270.914062 201.53125 265.4375 194.628906 C 259.851562 187.574219 252.898438 178.796875 247.371094 170.894531 C 240.015625 160.355469 238.734375 156.332031 238.515625 155.175781 C 240.078125 152.347656 243.421875 150.058594 246.757812 149.539062 C 248.265625 149.304688 250.375 149.347656 251.859375 150.878906 L 302.175781 202.605469 C 300.828125 222.246094 317.132812 238.527344 336.160156 237.539062 L 346.445312 248.117188 C 352.84375 254.679688 356.765625 259.03125 356.765625 265.386719 Z M 237.082031 249.203125 C 242.351562 241.367188 252.964844 225.597656 263.152344 209.503906 L 250.953125 193.96875 L 227.378906 223.015625 C 221.226562 230.582031 215.511719 236.449219 210.027344 240.738281 C 204.050781 247.132812 195.558594 251.136719 186.128906 251.136719 C 174.796875 251.136719 164.789062 245.339844 158.917969 236.550781 C 155.382812 233.257812 151.765625 229.324219 148.03125 224.742188 L 123.867188 195.054688 L 111.515625 210.816406 C 121.324219 226.074219 131.457031 241.011719 136.488281 248.433594 C 138.21875 250.992188 139.359375 252.675781 139.871094 253.464844 C 144.527344 260.574219 154.171875 287.453125 154.171875 291.972656 L 154.171875 354.933594 C 154.171875 356.417969 155.863281 357.730469 157.796875 357.730469 L 216.300781 357.730469 C 218.238281 357.730469 219.929688 356.417969 219.929688 354.933594 L 219.929688 291.972656 C 219.929688 287.453125 229.574219 260.574219 234.21875 253.464844 C 234.675781 252.769531 235.675781 251.296875 237.082031 249.203125 Z M 85.0625 252.617188 L 85.0625 353.425781 C 85.0625 355.792969 83.128906 357.726562 80.753906 357.726562 L 23.199219 357.726562 C 20.828125 357.726562 18.894531 355.792969 18.894531 353.425781 L 18.894531 265.386719 C 18.894531 259.03125 22.820312 254.679688 29.207031 248.117188 L 39.480469 237.5625 C 39.644531 237.5625 39.816406 237.578125 39.976562 237.578125 C 58.644531 237.578125 73.589844 221.808594 72.667969 203.449219 L 123.804688 150.878906 C 125.289062 149.347656 127.398438 149.304688 128.898438 149.542969 C 132.242188 150.058594 135.574219 152.351562 137.144531 155.175781 C 136.925781 156.335938 135.648438 160.355469 128.28125 170.890625 C 122.761719 178.796875 115.808594 187.578125 110.222656 194.628906 C 104.75 201.53125 101.585938 205.554688 100.214844 207.863281 C 95.445312 215.890625 85.0625 247.539062 85.0625 252.617188 Z M 18.238281 204.851562 C 18.238281 216.84375 27.988281 226.59375 39.976562 226.59375 C 51.964844 226.59375 61.71875 216.84375 61.71875 204.851562 C 61.71875 192.859375 51.964844 183.109375 39.976562 183.109375 C 27.988281 183.109375 18.238281 192.859375 18.238281 204.851562 Z M 51.371094 155.402344 L 104.078125 155.402344 L 115.933594 143.21875 C 119.636719 139.402344 124.847656 137.792969 130.582031 138.6875 C 137.472656 139.757812 143.886719 144.3125 147.007812 150.328125 C 147.890625 151.785156 148.28125 153.453125 148.167969 155.40625 L 162.453125 155.40625 L 162.453125 121.027344 L 156.542969 121.027344 C 144.882812 121.027344 135.382812 111.535156 135.382812 99.867188 C 135.382812 88.199219 144.882812 78.707031 156.542969 78.707031 L 162.453125 78.707031 L 162.453125 44.332031 L 128.078125 44.332031 L 128.078125 50.230469 C 128.078125 61.902344 118.582031 71.390625 106.917969 71.390625 C 95.246094 71.390625 85.746094 61.902344 85.746094 50.230469 L 85.746094 44.332031 L 51.371094 44.332031 Z M 186.132812 196.667969 C 198.125 196.667969 207.878906 206.421875 207.878906 218.40625 C 207.878906 223.816406 205.890625 228.769531 202.609375 232.574219 C 196.929688 236.859375 191.761719 238.925781 186.882812 238.925781 C 186.871094 238.925781 186.867188 238.925781 186.867188 238.925781 C 180.847656 238.925781 174.523438 235.894531 167.464844 229.53125 C 165.519531 226.269531 164.394531 222.46875 164.394531 218.40625 C 164.394531 206.421875 174.148438 196.667969 186.132812 196.667969 Z M 213.210938 155.402344 L 227.484375 155.402344 C 227.378906 153.449219 227.773438 151.785156 228.652344 150.328125 C 231.777344 144.3125 238.191406 139.757812 245.074219 138.683594 C 250.816406 137.792969 256.019531 139.402344 259.730469 143.21875 L 271.578125 155.402344 L 324.28125 155.402344 L 324.28125 44.332031 L 284.414062 44.332031 C 281.382812 44.332031 278.925781 41.871094 278.925781 38.839844 L 278.925781 27.4375 C 278.925781 21.832031 274.363281 17.261719 268.746094 17.261719 C 263.132812 17.261719 258.570312 21.832031 258.570312 27.4375 L 258.570312 38.839844 C 258.570312 41.871094 256.109375 44.332031 253.078125 44.332031 L 213.210938 44.332031 L 213.210938 84.199219 C 213.210938 87.230469 210.75 89.6875 207.71875 89.6875 L 196.320312 89.6875 C 190.707031 89.6875 186.140625 94.25 186.140625 99.867188 C 186.140625 105.476562 190.707031 110.042969 196.320312 110.042969 L 207.71875 110.042969 C 210.75 110.042969 213.210938 112.503906 213.210938 115.535156 Z M 334.816406 183.109375 C 322.824219 183.109375 313.074219 192.859375 313.074219 204.851562 C 313.074219 216.84375 322.824219 226.59375 334.816406 226.59375 C 346.800781 226.59375 356.554688 216.84375 356.554688 204.851562 C 356.554688 192.859375 346.800781 183.109375 334.816406 183.109375 Z M 354.3125 240.457031 L 348.554688 234.539062 C 359.757812 229.332031 367.539062 217.992188 367.539062 204.851562 C 367.539062 186.808594 352.859375 172.125 334.816406 172.125 C 321.996094 172.125 310.886719 179.535156 305.519531 190.292969 L 282.261719 166.390625 L 329.773438 166.390625 C 332.804688 166.390625 335.265625 163.925781 335.265625 160.894531 L 335.265625 38.839844 C 335.265625 35.800781 332.804688 33.347656 329.773438 33.347656 L 289.90625 33.347656 L 289.90625 27.4375 C 289.90625 15.769531 280.421875 6.277344 268.746094 6.277344 C 257.078125 6.277344 247.585938 15.769531 247.585938 27.4375 L 247.585938 33.347656 L 207.71875 33.347656 C 204.6875 33.347656 202.230469 35.800781 202.230469 38.839844 L 202.230469 78.707031 L 196.320312 78.707031 C 184.65625 78.707031 175.160156 88.199219 175.160156 99.867188 C 175.160156 111.535156 184.65625 121.027344 196.320312 121.027344 L 202.230469 121.027344 L 202.230469 160.898438 C 202.230469 163.929688 204.6875 166.390625 207.71875 166.390625 L 231.453125 166.390625 C 234.1875 171.300781 238.355469 177.371094 244.078125 185.003906 L 218.777344 216.175781 C 217.625 199.175781 203.425781 185.691406 186.132812 185.691406 C 169.492188 185.691406 155.714844 198.179688 153.679688 214.28125 L 130.753906 186.109375 C 136.90625 177.949219 141.34375 171.535156 144.199219 166.390625 L 167.945312 166.390625 C 170.976562 166.390625 173.4375 163.929688 173.4375 160.898438 L 173.4375 115.535156 C 173.4375 112.507812 170.976562 110.042969 167.945312 110.042969 L 156.542969 110.042969 C 150.9375 110.042969 146.371094 105.476562 146.371094 99.871094 C 146.371094 94.25 150.9375 89.6875 156.542969 89.6875 L 167.945312 89.6875 C 170.976562 89.6875 173.4375 87.230469 173.4375 84.203125 L 173.4375 38.839844 C 173.4375 35.800781 170.976562 33.347656 167.945312 33.347656 L 122.585938 33.347656 C 119.550781 33.347656 117.09375 35.800781 117.09375 38.839844 L 117.09375 50.230469 C 117.09375 55.839844 112.527344 60.410156 106.917969 60.410156 C 101.300781 60.410156 96.734375 55.839844 96.734375 50.230469 L 96.734375 38.839844 C 96.734375 35.800781 94.28125 33.347656 91.242188 33.347656 L 45.886719 33.347656 C 42.855469 33.347656 40.390625 35.800781 40.390625 38.839844 L 40.390625 160.894531 C 40.390625 163.925781 42.855469 166.390625 45.886719 166.390625 L 93.394531 166.390625 L 69.5625 190.886719 C 64.308594 179.808594 53.027344 172.125 39.976562 172.125 C 21.929688 172.125 7.253906 186.808594 7.253906 204.851562 C 7.253906 218.226562 15.3125 229.738281 26.839844 234.816406 L 21.347656 240.457031 C 14.746094 247.226562 7.910156 254.230469 7.910156 265.386719 L 7.910156 353.425781 C 7.910156 361.855469 14.773438 368.714844 23.199219 368.714844 L 80.753906 368.714844 C 89.183594 368.714844 96.042969 361.855469 96.042969 353.425781 L 96.042969 252.757812 C 96.421875 249.496094 101.484375 233.15625 105.765625 222.152344 C 114.484375 235.550781 122.929688 248.015625 127.398438 254.601562 C 129.03125 257.015625 130.214844 258.761719 130.683594 259.476562 C 134.472656 265.261719 142.546875 288.175781 143.191406 292.199219 L 143.191406 354.933594 C 143.191406 362.53125 149.742188 368.714844 157.800781 368.714844 L 216.300781 368.714844 C 224.359375 368.714844 230.914062 362.53125 230.914062 354.933594 L 230.914062 292.199219 C 231.554688 288.175781 239.636719 265.261719 243.417969 259.476562 C 243.859375 258.800781 244.828125 257.367188 246.191406 255.332031 C 250.9375 248.28125 259.992188 234.824219 269.210938 220.429688 C 273.613281 231.375 279.207031 249.320312 279.617188 252.757812 L 279.617188 353.421875 C 279.617188 361.855469 286.472656 368.710938 294.898438 368.710938 L 352.464844 368.710938 C 360.890625 368.710938 367.742188 361.855469 367.742188 353.421875 L 367.742188 265.386719 C 367.746094 254.230469 360.914062 247.226562 354.3125 240.457031 Z M 354.3125 240.457031 " fill-opacity="1" fill-rule="evenodd"/></g></svg>