<svg xmlns="http://www.w3.org/2000/svg" xmlns:xlink="http://www.w3.org/1999/xlink" width="500" zoomAndPan="magnify" viewBox="0 0 375 374.999991" height="500" preserveAspectRatio="xMidYMid meet" version="1.0"><defs><g/><clipPath id="d45d678c07"><path d="M 29.804688 4 L 345.191406 4 L 345.191406 370.996094 L 29.804688 370.996094 Z M 29.804688 4 " clip-rule="nonzero"/></clipPath><clipPath id="edf6c7dbba"><path d="M 187.5 4 L 345.191406 95.75 L 345.191406 279.25 L 187.5 370.996094 L 29.804688 279.25 L 29.804688 95.75 Z M 187.5 4 " clip-rule="nonzero"/></clipPath><clipPath id="22613b81a1"><path d="M 103.585938 56.507812 L 271.484375 56.507812 L 271.484375 225.25 L 103.585938 225.25 Z M 103.585938 56.507812 " clip-rule="nonzero"/></clipPath></defs><g clip-path="url(#d45d678c07)"><g clip-path="url(#edf6c7dbba)"><path stroke-linecap="butt" transform="matrix(0.843705, 0, 0, 0.843705, 29.804753, 4.001098)" fill="none" stroke-linejoin="miter" d="M 186.908019 -0.00130113 L 373.811486 108.745228 L 373.811486 326.238286 L 186.908019 434.980186 L -0.0000781349 326.238286 L -0.0000781349 108.745228 Z M 186.908019 -0.00130113 " stroke="#ffffff" stroke-width="24.890213" stroke-opacity="1" stroke-miterlimit="4"/></g></g><g clip-path="url(#22613b81a1)"><path fill="#ffffff" d="M 266.292969 218.125 C 266.292969 219.226562 265.394531 220.125 264.292969 220.125 L 237.492188 220.125 C 236.390625 220.125 235.492188 219.226562 235.492188 218.125 L 235.492188 171.195312 C 235.492188 168.832031 230.660156 154.097656 228.4375 150.359375 C 227.796875 149.285156 226.328125 147.414062 223.777344 144.199219 C 221.179688 140.917969 217.941406 136.828125 215.367188 133.152344 C 211.941406 128.242188 211.347656 126.371094 211.246094 125.832031 C 211.972656 124.515625 213.527344 123.449219 215.082031 123.210938 C 215.785156 123.101562 216.765625 123.117188 217.457031 123.832031 L 240.882812 147.914062 C 240.253906 157.054688 247.84375 164.632812 256.699219 164.175781 L 261.488281 169.101562 C 264.46875 172.15625 266.292969 174.179688 266.292969 177.140625 Z M 210.578125 169.605469 C 213.03125 165.957031 217.972656 158.617188 222.714844 151.125 L 217.035156 143.890625 L 206.058594 157.414062 C 203.199219 160.9375 200.539062 163.667969 197.984375 165.664062 C 195.203125 168.640625 191.246094 170.503906 186.859375 170.503906 C 181.582031 170.503906 176.925781 167.804688 174.191406 163.714844 C 172.542969 162.179688 170.859375 160.351562 169.121094 158.21875 L 157.875 144.398438 L 152.125 151.734375 C 156.691406 158.839844 161.40625 165.792969 163.75 169.246094 C 164.554688 170.4375 165.085938 171.222656 165.324219 171.589844 C 167.492188 174.898438 171.980469 187.414062 171.980469 189.515625 L 171.980469 218.824219 C 171.980469 219.515625 172.769531 220.128906 173.667969 220.128906 L 200.902344 220.128906 C 201.804688 220.128906 202.59375 219.515625 202.59375 218.824219 L 202.59375 189.515625 C 202.59375 187.414062 207.082031 174.898438 209.246094 171.589844 C 209.457031 171.265625 209.921875 170.582031 210.578125 169.605469 Z M 139.808594 171.195312 L 139.808594 218.125 C 139.808594 219.226562 138.910156 220.125 137.804688 220.125 L 111.007812 220.125 C 109.90625 220.125 109.007812 219.226562 109.007812 218.125 L 109.007812 177.140625 C 109.007812 174.179688 110.832031 172.15625 113.808594 169.101562 L 118.589844 164.1875 C 118.664062 164.1875 118.746094 164.195312 118.820312 164.195312 C 127.511719 164.195312 134.46875 156.851562 134.039062 148.304688 L 157.84375 123.832031 C 158.535156 123.121094 159.515625 123.101562 160.214844 123.210938 C 161.773438 123.453125 163.324219 124.515625 164.054688 125.832031 C 163.953125 126.371094 163.359375 128.242188 159.929688 133.148438 C 157.359375 136.828125 154.121094 140.917969 151.519531 144.199219 C 148.972656 147.414062 147.5 149.285156 146.863281 150.359375 C 144.644531 154.097656 139.808594 168.832031 139.808594 171.195312 Z M 108.699219 148.957031 C 108.699219 154.542969 113.238281 159.078125 118.820312 159.078125 C 124.402344 159.078125 128.941406 154.542969 128.941406 148.957031 C 128.941406 143.375 124.402344 138.835938 118.820312 138.835938 C 113.238281 138.835938 108.699219 143.375 108.699219 148.957031 Z M 124.125 125.9375 L 148.660156 125.9375 L 154.179688 120.265625 C 155.90625 118.488281 158.328125 117.742188 161 118.15625 C 164.207031 118.65625 167.191406 120.777344 168.644531 123.578125 C 169.058594 124.253906 169.238281 125.03125 169.1875 125.9375 L 175.835938 125.9375 L 175.835938 109.9375 L 173.085938 109.9375 C 167.65625 109.9375 163.234375 105.515625 163.234375 100.085938 C 163.234375 94.652344 167.65625 90.234375 173.085938 90.234375 L 175.835938 90.234375 L 175.835938 74.230469 L 159.832031 74.230469 L 159.832031 76.980469 C 159.832031 82.410156 155.414062 86.828125 149.984375 86.828125 C 144.550781 86.828125 140.128906 82.410156 140.128906 76.980469 L 140.128906 74.230469 L 124.125 74.230469 Z M 186.859375 145.148438 C 192.441406 145.148438 196.984375 149.691406 196.984375 155.269531 C 196.984375 157.785156 196.058594 160.09375 194.53125 161.863281 C 191.886719 163.859375 189.480469 164.820312 187.207031 164.820312 C 187.203125 164.820312 187.203125 164.820312 187.203125 164.820312 C 184.398438 164.820312 181.453125 163.410156 178.167969 160.445312 C 177.261719 158.929688 176.738281 157.160156 176.738281 155.269531 C 176.738281 149.691406 181.28125 145.148438 186.859375 145.148438 Z M 199.464844 125.9375 L 206.109375 125.9375 C 206.0625 125.03125 206.242188 124.253906 206.652344 123.574219 C 208.109375 120.777344 211.09375 118.65625 214.296875 118.15625 C 216.972656 117.738281 219.394531 118.488281 221.121094 120.265625 L 226.636719 125.9375 L 251.171875 125.9375 L 251.171875 74.230469 L 232.613281 74.230469 C 231.203125 74.230469 230.058594 73.085938 230.058594 71.675781 L 230.058594 66.367188 C 230.058594 63.757812 227.933594 61.628906 225.320312 61.628906 C 222.707031 61.628906 220.582031 63.757812 220.582031 66.367188 L 220.582031 71.675781 C 220.582031 73.085938 219.4375 74.230469 218.023438 74.230469 L 199.464844 74.230469 L 199.464844 92.792969 C 199.464844 94.203125 198.320312 95.347656 196.90625 95.347656 L 191.601562 95.347656 C 188.988281 95.347656 186.863281 97.472656 186.863281 100.085938 C 186.863281 102.695312 188.988281 104.824219 191.601562 104.824219 L 196.90625 104.824219 C 198.320312 104.824219 199.464844 105.96875 199.464844 107.378906 Z M 256.078125 138.835938 C 250.492188 138.835938 245.953125 143.375 245.953125 148.957031 C 245.953125 154.542969 250.492188 159.078125 256.078125 159.078125 C 261.65625 159.078125 266.195312 154.542969 266.195312 148.957031 C 266.195312 143.375 261.65625 138.835938 256.078125 138.835938 Z M 265.152344 165.535156 L 262.472656 162.777344 C 267.6875 160.355469 271.308594 155.074219 271.308594 148.957031 C 271.308594 140.558594 264.476562 133.722656 256.078125 133.722656 C 250.109375 133.722656 244.9375 137.171875 242.4375 142.179688 L 231.609375 131.054688 L 253.730469 131.054688 C 255.140625 131.054688 256.285156 129.90625 256.285156 128.496094 L 256.285156 71.675781 C 256.285156 70.261719 255.140625 69.117188 253.730469 69.117188 L 235.167969 69.117188 L 235.167969 66.367188 C 235.167969 60.933594 230.753906 56.515625 225.320312 56.515625 C 219.886719 56.515625 215.46875 60.933594 215.46875 66.367188 L 215.46875 69.117188 L 196.90625 69.117188 C 195.496094 69.117188 194.351562 70.257812 194.351562 71.675781 L 194.351562 90.234375 L 191.601562 90.234375 C 186.171875 90.234375 181.75 94.652344 181.75 100.085938 C 181.75 105.515625 186.171875 109.9375 191.601562 109.9375 L 194.351562 109.9375 L 194.351562 128.496094 C 194.351562 129.90625 195.496094 131.054688 196.90625 131.054688 L 207.957031 131.054688 C 209.230469 133.339844 211.171875 136.164062 213.835938 139.71875 L 202.054688 154.230469 C 201.519531 146.316406 194.910156 140.039062 186.859375 140.039062 C 179.113281 140.039062 172.699219 145.851562 171.753906 153.347656 L 161.078125 140.234375 C 163.945312 136.433594 166.007812 133.449219 167.339844 131.054688 L 178.394531 131.054688 C 179.804688 131.054688 180.949219 129.90625 180.949219 128.496094 L 180.949219 107.378906 C 180.949219 105.96875 179.804688 104.824219 178.394531 104.824219 L 173.085938 104.824219 C 170.476562 104.824219 168.347656 102.695312 168.347656 100.085938 C 168.347656 97.472656 170.476562 95.347656 173.085938 95.347656 L 178.394531 95.347656 C 179.804688 95.347656 180.949219 94.203125 180.949219 92.792969 L 180.949219 71.675781 C 180.949219 70.261719 179.804688 69.117188 178.394531 69.117188 L 157.277344 69.117188 C 155.863281 69.117188 154.71875 70.257812 154.71875 71.675781 L 154.71875 76.980469 C 154.71875 79.589844 152.59375 81.71875 149.984375 81.71875 C 147.367188 81.71875 145.242188 79.589844 145.242188 76.980469 L 145.242188 71.675781 C 145.242188 70.261719 144.101562 69.117188 142.683594 69.117188 L 121.570312 69.117188 C 120.160156 69.117188 119.011719 70.257812 119.011719 71.675781 L 119.011719 128.496094 C 119.011719 129.90625 120.160156 131.054688 121.570312 131.054688 L 143.6875 131.054688 L 132.59375 142.457031 C 130.148438 137.300781 124.894531 133.722656 118.820312 133.722656 C 110.417969 133.722656 103.585938 140.558594 103.585938 148.957031 C 103.585938 155.183594 107.339844 160.542969 112.703125 162.90625 L 110.148438 165.535156 C 107.074219 168.683594 103.890625 171.945312 103.890625 177.140625 L 103.890625 218.125 C 103.890625 222.046875 107.085938 225.242188 111.007812 225.242188 L 137.804688 225.242188 C 141.726562 225.242188 144.921875 222.046875 144.921875 218.125 L 144.921875 171.261719 C 145.097656 169.742188 147.453125 162.132812 149.445312 157.011719 C 153.503906 163.25 157.4375 169.054688 159.515625 172.117188 C 160.277344 173.242188 160.828125 174.054688 161.046875 174.390625 C 162.8125 177.082031 166.570312 187.75 166.867188 189.621094 L 166.867188 218.824219 C 166.867188 222.363281 169.917969 225.242188 173.667969 225.242188 L 200.902344 225.242188 C 204.65625 225.242188 207.707031 222.363281 207.707031 218.824219 L 207.707031 189.621094 C 208.003906 187.75 211.765625 177.082031 213.527344 174.390625 C 213.734375 174.074219 214.183594 173.40625 214.820312 172.457031 C 217.027344 169.175781 221.246094 162.910156 225.535156 156.210938 C 227.582031 161.304688 230.1875 169.660156 230.378906 171.261719 L 230.378906 218.121094 C 230.378906 222.046875 233.570312 225.238281 237.492188 225.238281 L 264.292969 225.238281 C 268.214844 225.238281 271.402344 222.046875 271.402344 218.121094 L 271.402344 177.140625 C 271.40625 171.945312 268.226562 168.683594 265.152344 165.535156 Z M 265.152344 165.535156 " fill-opacity="1" fill-rule="evenodd"/></g><g fill="#ffffff" fill-opacity="1"><g transform="translate(92.900776, 285.884353)"><g><path d="M 11.65625 -8.859375 L 9.1875 0 L 6.25 0 L 3.78125 -8.859375 L 3.875 -6.09375 L 3.875 0 L 1 0 L 1 -13.859375 L 5.234375 -13.859375 L 7.734375 -4.984375 L 10.203125 -13.859375 L 14.46875 -13.859375 L 14.46875 0 L 11.578125 0 L 11.578125 -6.09375 Z M 11.65625 -8.859375 "/></g></g></g><g fill="#ffffff" fill-opacity="1"><g transform="translate(110.447344, 285.884353)"><g><path d="M 1 -13.859375 L 9.46875 -13.859375 L 9.46875 -11.375 L 3.875 -11.375 L 3.875 -8.3125 L 8.578125 -8.3125 L 8.578125 -5.828125 L 3.875 -5.828125 L 3.875 -2.484375 L 9.46875 -2.484375 L 9.46875 0 L 1 0 Z M 1 -13.859375 "/></g></g></g><g fill="#ffffff" fill-opacity="1"><g transform="translate(122.737735, 285.884353)"><g><path d="M 11.140625 -13.859375 L 11.140625 0 L 8.09375 0 L 3.625 -8.59375 L 3.71875 -5.8125 L 3.71875 0 L 1 0 L 1 -13.859375 L 4.03125 -13.859375 L 8.484375 -5.265625 L 8.40625 -8.046875 L 8.40625 -13.859375 Z M 11.140625 -13.859375 "/></g></g></g><g fill="#ffffff" fill-opacity="1"><g transform="translate(136.981434, 285.884353)"><g><path d="M 6.375 -11.375 L 6.375 0 L 3.5 0 L 3.5 -11.375 L 0.296875 -11.375 L 0.296875 -13.859375 L 9.59375 -13.859375 L 9.59375 -11.375 Z M 6.375 -11.375 "/></g></g></g><g fill="#ffffff" fill-opacity="1"><g transform="translate(148.987712, 285.884353)"><g><path d="M 5.96875 0.234375 C 4.175781 0.234375 2.847656 -0.300781 1.984375 -1.375 C 1.117188 -2.445312 0.6875 -4.179688 0.6875 -6.578125 L 0.6875 -7.28125 C 0.6875 -9.6875 1.117188 -11.421875 1.984375 -12.484375 C 2.847656 -13.554688 4.175781 -14.09375 5.96875 -14.09375 C 7.769531 -14.09375 9.101562 -13.554688 9.96875 -12.484375 C 10.832031 -11.421875 11.265625 -9.6875 11.265625 -7.28125 L 11.265625 -6.578125 C 11.265625 -4.179688 10.832031 -2.445312 9.96875 -1.375 C 9.101562 -0.300781 7.769531 0.234375 5.96875 0.234375 Z M 5.890625 -2.25 L 6.0625 -2.25 C 6.945312 -2.25 7.546875 -2.625 7.859375 -3.375 C 8.171875 -4.125 8.328125 -5.191406 8.328125 -6.578125 L 8.328125 -7.28125 C 8.328125 -8.664062 8.171875 -9.726562 7.859375 -10.46875 C 7.546875 -11.21875 6.945312 -11.59375 6.0625 -11.59375 L 5.890625 -11.59375 C 5.003906 -11.59375 4.398438 -11.21875 4.078125 -10.46875 C 3.765625 -9.726562 3.609375 -8.664062 3.609375 -7.28125 L 3.609375 -6.578125 C 3.609375 -5.191406 3.765625 -4.125 4.078125 -3.375 C 4.398438 -2.625 5.003906 -2.25 5.890625 -2.25 Z M 5.890625 -2.25 "/></g></g></g><g fill="#ffffff" fill-opacity="1"><g transform="translate(163.053844, 285.884353)"><g><path d="M 3.875 -4.96875 L 3.875 0 L 1 0 L 1 -13.859375 L 5.546875 -13.859375 C 6.109375 -13.859375 6.671875 -13.800781 7.234375 -13.6875 C 7.796875 -13.582031 8.3125 -13.382812 8.78125 -13.09375 C 9.257812 -12.8125 9.640625 -12.390625 9.921875 -11.828125 C 10.210938 -11.265625 10.359375 -10.519531 10.359375 -9.59375 L 10.359375 -9.234375 C 10.359375 -8.117188 10.148438 -7.265625 9.734375 -6.671875 C 9.316406 -6.078125 8.796875 -5.648438 8.171875 -5.390625 L 10.359375 0 L 7.25 0 L 5.34375 -4.96875 Z M 3.875 -7.46875 L 5.671875 -7.46875 C 5.929688 -7.46875 6.195312 -7.515625 6.46875 -7.609375 C 6.738281 -7.703125 6.96875 -7.878906 7.15625 -8.140625 C 7.34375 -8.410156 7.4375 -8.804688 7.4375 -9.328125 L 7.4375 -9.5 C 7.4375 -10.019531 7.34375 -10.410156 7.15625 -10.671875 C 6.96875 -10.941406 6.738281 -11.125 6.46875 -11.21875 C 6.195312 -11.320312 5.929688 -11.375 5.671875 -11.375 L 3.875 -11.375 Z M 3.875 -7.46875 "/></g></g></g><g fill="#ffffff" fill-opacity="1"><g transform="translate(176.232102, 285.884353)"><g><path d="M 5.15625 -5.796875 C 3.644531 -5.992188 2.523438 -6.390625 1.796875 -6.984375 C 1.066406 -7.585938 0.703125 -8.515625 0.703125 -9.765625 L 0.703125 -9.96875 C 0.703125 -11.21875 1.125 -12.21875 1.96875 -12.96875 C 2.8125 -13.71875 4.019531 -14.09375 5.59375 -14.09375 C 7.300781 -14.09375 8.546875 -13.703125 9.328125 -12.921875 C 10.109375 -12.148438 10.5 -10.953125 10.5 -9.328125 L 10.5 -8.953125 L 7.625 -8.953125 C 7.625 -9.867188 7.472656 -10.535156 7.171875 -10.953125 C 6.867188 -11.378906 6.347656 -11.59375 5.609375 -11.59375 L 5.453125 -11.59375 C 4.867188 -11.59375 4.414062 -11.453125 4.09375 -11.171875 C 3.78125 -10.890625 3.625 -10.523438 3.625 -10.078125 L 3.625 -9.984375 C 3.625 -9.648438 3.6875 -9.363281 3.8125 -9.125 C 3.9375 -8.894531 4.171875 -8.703125 4.515625 -8.546875 C 4.867188 -8.390625 5.382812 -8.265625 6.0625 -8.171875 C 7.570312 -7.972656 8.707031 -7.578125 9.46875 -6.984375 C 10.226562 -6.390625 10.609375 -5.445312 10.609375 -4.15625 L 10.609375 -3.984375 C 10.609375 -2.648438 10.175781 -1.613281 9.3125 -0.875 C 8.457031 -0.132812 7.21875 0.234375 5.59375 0.234375 C 3.957031 0.234375 2.71875 -0.144531 1.875 -0.90625 C 1.03125 -1.675781 0.609375 -2.894531 0.609375 -4.5625 L 0.609375 -4.71875 L 3.484375 -4.71875 C 3.484375 -3.851562 3.65625 -3.222656 4 -2.828125 C 4.351562 -2.441406 4.863281 -2.25 5.53125 -2.25 L 5.6875 -2.25 C 6.351562 -2.25 6.847656 -2.40625 7.171875 -2.71875 C 7.503906 -3.039062 7.671875 -3.429688 7.671875 -3.890625 L 7.671875 -3.984375 C 7.671875 -4.316406 7.597656 -4.597656 7.453125 -4.828125 C 7.316406 -5.066406 7.066406 -5.265625 6.703125 -5.421875 C 6.347656 -5.585938 5.832031 -5.710938 5.15625 -5.796875 Z M 5.15625 -5.796875 "/></g></g></g><g fill="#ffffff" fill-opacity="1"><g transform="translate(189.552423, 285.884353)"><g/></g></g><g fill="#ffffff" fill-opacity="1"><g transform="translate(195.219329, 285.884353)"><g><path d="M 6.1875 0.234375 C 4.300781 0.234375 2.910156 -0.300781 2.015625 -1.375 C 1.128906 -2.445312 0.6875 -4.179688 0.6875 -6.578125 L 0.6875 -7.28125 C 0.6875 -9.6875 1.125 -11.421875 2 -12.484375 C 2.882812 -13.554688 4.21875 -14.09375 6 -14.09375 C 7.65625 -14.09375 8.910156 -13.710938 9.765625 -12.953125 C 10.617188 -12.203125 11.046875 -10.960938 11.046875 -9.234375 L 11.046875 -8.59375 L 8.171875 -8.59375 C 8.171875 -9.539062 8.035156 -10.273438 7.765625 -10.796875 C 7.503906 -11.328125 6.972656 -11.59375 6.171875 -11.59375 L 6 -11.59375 C 5.375 -11.59375 4.882812 -11.425781 4.53125 -11.09375 C 4.1875 -10.769531 3.945312 -10.285156 3.8125 -9.640625 C 3.6875 -8.992188 3.625 -8.207031 3.625 -7.28125 L 3.625 -6.578125 C 3.625 -5.648438 3.691406 -4.863281 3.828125 -4.21875 C 3.960938 -3.582031 4.207031 -3.09375 4.5625 -2.75 C 4.914062 -2.414062 5.429688 -2.25 6.109375 -2.25 L 6.265625 -2.25 C 6.679688 -2.25 7.046875 -2.300781 7.359375 -2.40625 C 7.671875 -2.507812 7.9375 -2.640625 8.15625 -2.796875 L 8.15625 -5.015625 L 6.328125 -5.015625 L 6.328125 -7.5 L 11.03125 -7.5 L 11.03125 -1.390625 C 10.519531 -0.960938 9.882812 -0.582031 9.125 -0.25 C 8.375 0.0703125 7.394531 0.234375 6.1875 0.234375 Z M 6.1875 0.234375 "/></g></g></g><g fill="#ffffff" fill-opacity="1"><g transform="translate(209.285461, 285.884353)"><g><path d="M 3.71875 -13.890625 L 7.671875 -13.890625 L 11.140625 0 L 8.0625 0 L 7.390625 -2.984375 L 4 -2.984375 L 3.34375 0 L 0.25 0 Z M 5.6875 -10.578125 L 4.546875 -5.46875 L 6.828125 -5.46875 Z M 5.6875 -10.578125 "/></g></g></g><g fill="#ffffff" fill-opacity="1"><g transform="translate(222.783352, 285.884353)"><g><path d="M 8.984375 0 L 1 0 L 1 -13.859375 L 3.875 -13.859375 L 3.875 -2.484375 L 8.984375 -2.484375 Z M 8.984375 0 "/></g></g></g><g fill="#ffffff" fill-opacity="1"><g transform="translate(234.150365, 285.884353)"><g><path d="M 8.984375 0 L 1 0 L 1 -13.859375 L 3.875 -13.859375 L 3.875 -2.484375 L 8.984375 -2.484375 Z M 8.984375 0 "/></g></g></g><g fill="#ffffff" fill-opacity="1"><g transform="translate(245.517378, 285.884353)"><g><path d="M 1 -13.859375 L 9.46875 -13.859375 L 9.46875 -11.375 L 3.875 -11.375 L 3.875 -8.3125 L 8.578125 -8.3125 L 8.578125 -5.828125 L 3.875 -5.828125 L 3.875 -2.484375 L 9.46875 -2.484375 L 9.46875 0 L 1 0 Z M 1 -13.859375 "/></g></g></g><g fill="#ffffff" fill-opacity="1"><g transform="translate(257.807773, 285.884353)"><g><path d="M 3.875 -4.96875 L 3.875 0 L 1 0 L 1 -13.859375 L 5.546875 -13.859375 C 6.109375 -13.859375 6.671875 -13.800781 7.234375 -13.6875 C 7.796875 -13.582031 8.3125 -13.382812 8.78125 -13.09375 C 9.257812 -12.8125 9.640625 -12.390625 9.921875 -11.828125 C 10.210938 -11.265625 10.359375 -10.519531 10.359375 -9.59375 L 10.359375 -9.234375 C 10.359375 -8.117188 10.148438 -7.265625 9.734375 -6.671875 C 9.316406 -6.078125 8.796875 -5.648438 8.171875 -5.390625 L 10.359375 0 L 7.25 0 L 5.34375 -4.96875 Z M 3.875 -7.46875 L 5.671875 -7.46875 C 5.929688 -7.46875 6.195312 -7.515625 6.46875 -7.609375 C 6.738281 -7.703125 6.96875 -7.878906 7.15625 -8.140625 C 7.34375 -8.410156 7.4375 -8.804688 7.4375 -9.328125 L 7.4375 -9.5 C 7.4375 -10.019531 7.34375 -10.410156 7.15625 -10.671875 C 6.96875 -10.941406 6.738281 -11.125 6.46875 -11.21875 C 6.195312 -11.320312 5.929688 -11.375 5.671875 -11.375 L 3.875 -11.375 Z M 3.875 -7.46875 "/></g></g></g><g fill="#ffffff" fill-opacity="1"><g transform="translate(270.986031, 285.884353)"><g><path d="M 7 -4.25 L 7 0 L 4.125 0 L 4.125 -4.25 L 0.140625 -13.859375 L 3.28125 -13.859375 L 5.5625 -7.796875 L 7.8125 -13.859375 L 10.96875 -13.859375 Z M 7 -4.25 "/></g></g></g><g fill="#d9d9d9" fill-opacity="1"><g transform="translate(88.324456, 261.975496)"><g><path d="M 2.109375 0 L 2.109375 -27.21875 L 8.640625 -27.21875 L 8.640625 -16.703125 L 19.765625 -16.703125 L 19.765625 -27.21875 L 26.3125 -27.21875 L 26.3125 0 L 19.765625 0 L 19.765625 -11.46875 L 8.640625 -11.46875 L 8.640625 0 Z M 2.109375 0 "/></g></g></g><g fill="#d9d9d9" fill-opacity="1"><g transform="translate(116.729572, 261.975496)"><g><path d="M 0.1875 0 L 10.0625 -27.21875 L 18.046875 -27.21875 L 27.875 0 L 21.03125 0 L 19.265625 -5.359375 L 8.796875 -5.359375 L 7.03125 0 Z M 9.984375 -9.984375 L 18.078125 -9.984375 L 14.0625 -22.0625 L 14 -22.0625 Z M 9.984375 -9.984375 "/></g></g></g><g fill="#d9d9d9" fill-opacity="1"><g transform="translate(144.790619, 261.975496)"><g><path d="M 15.90625 0.953125 C 12.894531 0.953125 10.285156 0.363281 8.078125 -0.8125 C 5.878906 -2 4.171875 -3.679688 2.953125 -5.859375 C 1.742188 -8.046875 1.140625 -10.628906 1.140625 -13.609375 C 1.140625 -16.585938 1.710938 -19.164062 2.859375 -21.34375 C 4.015625 -23.53125 5.640625 -25.210938 7.734375 -26.390625 C 9.835938 -27.578125 12.316406 -28.171875 15.171875 -28.171875 C 17.421875 -28.171875 19.429688 -27.765625 21.203125 -26.953125 C 22.972656 -26.140625 24.429688 -24.976562 25.578125 -23.46875 C 26.722656 -21.96875 27.453125 -20.1875 27.765625 -18.125 L 21.796875 -16.625 C 21.460938 -18.46875 20.722656 -19.921875 19.578125 -20.984375 C 18.429688 -22.054688 16.960938 -22.59375 15.171875 -22.59375 C 12.878906 -22.59375 11.054688 -21.78125 9.703125 -20.15625 C 8.359375 -18.539062 7.6875 -16.359375 7.6875 -13.609375 C 7.707031 -10.878906 8.460938 -8.707031 9.953125 -7.09375 C 11.453125 -5.476562 13.460938 -4.671875 15.984375 -4.671875 C 18.078125 -4.671875 19.835938 -5.304688 21.265625 -6.578125 C 22.691406 -7.847656 23.566406 -9.554688 23.890625 -11.703125 L 30.015625 -10.859375 C 29.734375 -8.460938 28.96875 -6.378906 27.71875 -4.609375 C 26.46875 -2.835938 24.835938 -1.46875 22.828125 -0.5 C 20.816406 0.46875 18.507812 0.953125 15.90625 0.953125 Z M 15.90625 0.953125 "/></g></g></g><g fill="#d9d9d9" fill-opacity="1"><g transform="translate(175.451323, 261.975496)"><g><path d="M 2.109375 0 L 2.109375 -27.21875 L 8.640625 -27.21875 L 8.640625 -16.859375 L 8.71875 -16.828125 L 17.390625 -27.21875 L 25.34375 -27.21875 L 15.9375 -16.75 L 25.6875 0 L 17.8125 0 L 11.515625 -11.890625 L 8.640625 -8.828125 L 8.640625 0 Z M 2.109375 0 "/></g></g></g><g fill="#d9d9d9" fill-opacity="1"><g transform="translate(201.33324, 261.975496)"><g><path d="M 2.109375 0 L 2.109375 -27.21875 L 8.640625 -27.21875 L 8.640625 -16.703125 L 19.765625 -16.703125 L 19.765625 -27.21875 L 26.3125 -27.21875 L 26.3125 0 L 19.765625 0 L 19.765625 -11.46875 L 8.640625 -11.46875 L 8.640625 0 Z M 2.109375 0 "/></g></g></g><g fill="#d9d9d9" fill-opacity="1"><g transform="translate(229.738356, 261.975496)"><g><path d="M 2.109375 0 L 2.109375 -27.21875 L 14.953125 -27.21875 C 17.066406 -27.21875 18.910156 -26.84375 20.484375 -26.09375 C 22.066406 -25.34375 23.296875 -24.289062 24.171875 -22.9375 C 25.054688 -21.59375 25.5 -20.015625 25.5 -18.203125 C 25.5 -16.390625 25.054688 -14.800781 24.171875 -13.4375 C 23.296875 -12.070312 22.0625 -11.015625 20.46875 -10.265625 C 18.875 -9.515625 17.007812 -9.140625 14.875 -9.140625 L 8.609375 -9.140625 L 8.609375 0 Z M 8.609375 -14 L 13.921875 -14 C 15.453125 -14 16.675781 -14.382812 17.59375 -15.15625 C 18.507812 -15.9375 18.96875 -16.953125 18.96875 -18.203125 C 18.96875 -19.472656 18.515625 -20.488281 17.609375 -21.25 C 16.703125 -22.019531 15.472656 -22.40625 13.921875 -22.40625 L 8.609375 -22.40625 Z M 8.609375 -14 "/></g></g></g><g fill="#d9d9d9" fill-opacity="1"><g transform="translate(256.002577, 261.975496)"><g><path d="M 15.90625 0.953125 C 12.894531 0.953125 10.285156 0.363281 8.078125 -0.8125 C 5.878906 -2 4.171875 -3.679688 2.953125 -5.859375 C 1.742188 -8.046875 1.140625 -10.628906 1.140625 -13.609375 C 1.140625 -16.585938 1.710938 -19.164062 2.859375 -21.34375 C 4.015625 -23.53125 5.640625 -25.210938 7.734375 -26.390625 C 9.835938 -27.578125 12.316406 -28.171875 15.171875 -28.171875 C 17.421875 -28.171875 19.429688 -27.765625 21.203125 -26.953125 C 22.972656 -26.140625 24.429688 -24.976562 25.578125 -23.46875 C 26.722656 -21.96875 27.453125 -20.1875 27.765625 -18.125 L 21.796875 -16.625 C 21.460938 -18.46875 20.722656 -19.921875 19.578125 -20.984375 C 18.429688 -22.054688 16.960938 -22.59375 15.171875 -22.59375 C 12.878906 -22.59375 11.054688 -21.78125 9.703125 -20.15625 C 8.359375 -18.539062 7.6875 -16.359375 7.6875 -13.609375 C 7.707031 -10.878906 8.460938 -8.707031 9.953125 -7.09375 C 11.453125 -5.476562 13.460938 -4.671875 15.984375 -4.671875 C 18.078125 -4.671875 19.835938 -5.304688 21.265625 -6.578125 C 22.691406 -7.847656 23.566406 -9.554688 23.890625 -11.703125 L 30.015625 -10.859375 C 29.734375 -8.460938 28.96875 -6.378906 27.71875 -4.609375 C 26.46875 -2.835938 24.835938 -1.46875 22.828125 -0.5 C 20.816406 0.46875 18.507812 0.953125 15.90625 0.953125 Z M 15.90625 0.953125 "/></g></g></g></svg>