<svg xmlns="http://www.w3.org/2000/svg" xmlns:xlink="http://www.w3.org/1999/xlink" width="300" zoomAndPan="magnify" viewBox="0 0 224.87999 56.249996" height="75" preserveAspectRatio="xMidYMid meet" version="1.0"><defs><g/><clipPath id="91567f1b37"><path d="M 2.609375 0 L 55.898438 0 L 55.898438 54 L 2.609375 54 Z M 2.609375 0 " clip-rule="nonzero"/></clipPath></defs><g clip-path="url(#91567f1b37)"><path fill="#253c75" d="M 54.507812 51.550781 C 54.507812 51.902344 54.222656 52.1875 53.871094 52.1875 L 45.320312 52.1875 C 44.96875 52.1875 44.683594 51.902344 44.683594 51.550781 L 44.683594 36.582031 C 44.683594 35.828125 43.140625 31.125 42.433594 29.933594 C 42.230469 29.59375 41.761719 28.996094 40.945312 27.96875 C 40.117188 26.921875 39.085938 25.621094 38.265625 24.445312 C 37.171875 22.878906 36.980469 22.285156 36.949219 22.113281 C 37.179688 21.691406 37.675781 21.351562 38.171875 21.273438 C 38.398438 21.238281 38.710938 21.246094 38.929688 21.472656 L 46.402344 29.152344 C 46.203125 32.070312 48.621094 34.488281 51.449219 34.34375 L 52.976562 35.914062 C 53.925781 36.886719 54.507812 37.53125 54.507812 38.476562 Z M 36.738281 36.074219 C 37.519531 34.910156 39.09375 32.570312 40.605469 30.179688 L 38.796875 27.871094 L 35.296875 32.183594 C 34.382812 33.308594 33.535156 34.179688 32.71875 34.816406 C 31.832031 35.765625 30.570312 36.359375 29.171875 36.359375 C 27.488281 36.359375 26.003906 35.5 25.128906 34.195312 C 24.605469 33.707031 24.066406 33.121094 23.511719 32.441406 L 19.925781 28.03125 L 18.089844 30.375 C 19.546875 32.640625 21.050781 34.855469 21.800781 35.960938 C 22.054688 36.339844 22.226562 36.589844 22.300781 36.707031 C 22.992188 37.761719 24.425781 41.753906 24.425781 42.425781 L 24.425781 51.773438 C 24.425781 51.992188 24.675781 52.1875 24.964844 52.1875 L 33.652344 52.1875 C 33.9375 52.1875 34.191406 51.992188 34.191406 51.773438 L 34.191406 42.425781 C 34.191406 41.753906 35.621094 37.761719 36.3125 36.707031 C 36.378906 36.601562 36.527344 36.382812 36.738281 36.074219 Z M 14.164062 36.582031 L 14.164062 51.550781 C 14.164062 51.902344 13.875 52.1875 13.523438 52.1875 L 4.976562 52.1875 C 4.625 52.1875 4.339844 51.902344 4.339844 51.550781 L 4.339844 38.476562 C 4.339844 37.53125 4.921875 36.886719 5.871094 35.914062 L 7.394531 34.34375 C 7.417969 34.34375 7.445312 34.347656 7.46875 34.347656 C 10.242188 34.347656 12.460938 32.003906 12.324219 29.28125 L 19.914062 21.472656 C 20.136719 21.246094 20.449219 21.238281 20.671875 21.273438 C 21.167969 21.351562 21.664062 21.691406 21.898438 22.113281 C 21.863281 22.285156 21.675781 22.878906 20.582031 24.445312 C 19.761719 25.621094 18.726562 26.921875 17.898438 27.96875 C 17.085938 28.996094 16.617188 29.59375 16.414062 29.933594 C 15.707031 31.128906 14.164062 35.828125 14.164062 36.582031 Z M 4.242188 29.488281 C 4.242188 31.269531 5.6875 32.714844 7.46875 32.714844 C 9.25 32.714844 10.695312 31.269531 10.695312 29.488281 C 10.695312 27.707031 9.25 26.257812 7.46875 26.257812 C 5.6875 26.257812 4.242188 27.707031 4.242188 29.488281 Z M 9.160156 22.144531 L 16.988281 22.144531 L 18.746094 20.335938 C 19.296875 19.769531 20.070312 19.53125 20.921875 19.664062 C 21.945312 19.824219 22.898438 20.5 23.363281 21.390625 C 23.492188 21.609375 23.550781 21.855469 23.535156 22.144531 L 25.65625 22.144531 L 25.65625 17.042969 L 24.777344 17.042969 C 23.046875 17.042969 21.636719 15.632812 21.636719 13.898438 C 21.636719 12.167969 23.046875 10.757812 24.777344 10.757812 L 25.65625 10.757812 L 25.65625 5.652344 L 20.550781 5.652344 L 20.550781 6.527344 C 20.550781 8.261719 19.140625 9.671875 17.410156 9.671875 C 15.675781 9.671875 14.265625 8.261719 14.265625 6.527344 L 14.265625 5.652344 L 9.160156 5.652344 Z M 29.171875 28.273438 C 30.953125 28.273438 32.398438 29.722656 32.398438 31.5 C 32.398438 32.304688 32.105469 33.039062 31.617188 33.605469 C 30.773438 34.242188 30.007812 34.546875 29.28125 34.546875 C 28.386719 34.546875 27.445312 34.097656 26.398438 33.152344 C 26.109375 32.667969 25.941406 32.105469 25.941406 31.5 C 25.941406 29.722656 27.390625 28.273438 29.171875 28.273438 Z M 33.191406 22.144531 L 35.3125 22.144531 C 35.296875 21.855469 35.355469 21.609375 35.484375 21.390625 C 35.949219 20.5 36.902344 19.824219 37.921875 19.664062 C 38.777344 19.53125 39.546875 19.769531 40.101562 20.335938 L 41.859375 22.144531 L 49.683594 22.144531 L 49.683594 5.652344 L 43.765625 5.652344 C 43.316406 5.652344 42.949219 5.285156 42.949219 4.835938 L 42.949219 3.144531 C 42.949219 2.3125 42.273438 1.632812 41.4375 1.632812 C 40.605469 1.632812 39.925781 2.3125 39.925781 3.144531 L 39.925781 4.835938 C 39.925781 5.285156 39.5625 5.652344 39.113281 5.652344 L 33.191406 5.652344 L 33.191406 11.574219 C 33.191406 12.023438 32.828125 12.386719 32.375 12.386719 L 30.683594 12.386719 C 29.851562 12.386719 29.171875 13.066406 29.171875 13.898438 C 29.171875 14.730469 29.851562 15.410156 30.683594 15.410156 L 32.375 15.410156 C 32.828125 15.410156 33.191406 15.777344 33.191406 16.226562 Z M 51.25 26.257812 C 49.46875 26.257812 48.019531 27.707031 48.019531 29.488281 C 48.019531 31.269531 49.46875 32.714844 51.25 32.714844 C 53.027344 32.714844 54.476562 31.269531 54.476562 29.488281 C 54.476562 27.707031 53.027344 26.257812 51.25 26.257812 Z M 54.144531 34.773438 L 53.289062 33.894531 C 54.953125 33.125 56.109375 31.4375 56.109375 29.488281 C 56.109375 26.808594 53.929688 24.628906 51.25 24.628906 C 49.34375 24.628906 47.695312 25.730469 46.898438 27.324219 L 43.445312 23.777344 L 50.5 23.777344 C 50.949219 23.777344 51.316406 23.410156 51.316406 22.960938 L 51.316406 4.835938 C 51.316406 4.386719 50.949219 4.019531 50.5 4.019531 L 44.582031 4.019531 L 44.582031 3.144531 C 44.582031 1.410156 43.171875 0 41.4375 0 C 39.707031 0 38.296875 1.410156 38.296875 3.144531 L 38.296875 4.019531 L 32.375 4.019531 C 31.925781 4.019531 31.5625 4.386719 31.5625 4.835938 L 31.5625 10.757812 L 30.683594 10.757812 C 28.953125 10.757812 27.542969 12.167969 27.542969 13.898438 C 27.542969 15.632812 28.953125 17.042969 30.683594 17.042969 L 31.5625 17.042969 L 31.5625 22.960938 C 31.5625 23.410156 31.925781 23.777344 32.375 23.777344 L 35.902344 23.777344 C 36.308594 24.503906 36.925781 25.40625 37.773438 26.542969 L 34.019531 31.167969 C 33.847656 28.644531 31.738281 26.644531 29.171875 26.644531 C 26.699219 26.644531 24.65625 28.496094 24.351562 30.886719 L 20.949219 26.707031 C 21.863281 25.492188 22.519531 24.539062 22.945312 23.777344 L 26.46875 23.777344 C 26.921875 23.777344 27.285156 23.410156 27.285156 22.960938 L 27.285156 16.226562 C 27.285156 15.777344 26.921875 15.410156 26.46875 15.410156 L 24.777344 15.410156 C 23.945312 15.410156 23.265625 14.730469 23.265625 13.898438 C 23.265625 13.066406 23.945312 12.386719 24.777344 12.386719 L 26.46875 12.386719 C 26.921875 12.386719 27.285156 12.023438 27.285156 11.574219 L 27.285156 4.835938 C 27.285156 4.386719 26.921875 4.019531 26.46875 4.019531 L 19.734375 4.019531 C 19.285156 4.019531 18.917969 4.386719 18.917969 4.835938 L 18.917969 6.527344 C 18.917969 7.363281 18.242188 8.039062 17.410156 8.039062 C 16.574219 8.039062 15.894531 7.363281 15.894531 6.527344 L 15.894531 4.835938 C 15.894531 4.386719 15.53125 4.019531 15.082031 4.019531 L 8.347656 4.019531 C 7.894531 4.019531 7.53125 4.386719 7.53125 4.835938 L 7.53125 22.960938 C 7.53125 23.410156 7.894531 23.777344 8.347656 23.777344 L 15.398438 23.777344 L 11.863281 27.414062 C 11.082031 25.769531 9.40625 24.628906 7.46875 24.628906 C 4.789062 24.628906 2.609375 26.808594 2.609375 29.488281 C 2.609375 31.472656 3.804688 33.183594 5.519531 33.9375 L 4.703125 34.773438 C 3.722656 35.78125 2.707031 36.820312 2.707031 38.476562 L 2.707031 51.550781 C 2.707031 52.800781 3.726562 53.820312 4.976562 53.820312 L 13.523438 53.820312 C 14.773438 53.820312 15.792969 52.800781 15.792969 51.550781 L 15.792969 36.601562 C 15.851562 36.117188 16.601562 33.691406 17.238281 32.058594 C 18.53125 34.046875 19.785156 35.898438 20.449219 36.875 C 20.691406 37.234375 20.867188 37.492188 20.9375 37.597656 C 21.5 38.457031 22.699219 41.859375 22.792969 42.457031 L 22.792969 51.773438 C 22.792969 52.902344 23.765625 53.820312 24.964844 53.820312 L 33.652344 53.820312 C 34.847656 53.820312 35.820312 52.902344 35.820312 51.773438 L 35.820312 42.457031 C 35.914062 41.859375 37.117188 38.457031 37.675781 37.597656 C 37.742188 37.5 37.886719 37.285156 38.089844 36.984375 C 38.792969 35.9375 40.140625 33.9375 41.507812 31.800781 C 42.160156 33.425781 42.992188 36.089844 43.050781 36.601562 L 43.050781 51.550781 C 43.050781 52.800781 44.070312 53.820312 45.320312 53.820312 L 53.871094 53.820312 C 55.121094 53.820312 56.136719 52.800781 56.136719 51.550781 L 56.136719 38.476562 C 56.136719 36.820312 55.125 35.78125 54.144531 34.773438 Z M 54.144531 34.773438 " fill-opacity="1" fill-rule="evenodd"/></g><g fill="#253c75" fill-opacity="1"><g transform="translate(57.679337, 52.830353)"><g><path d="M 9.921875 -7.546875 L 7.8125 0 L 5.328125 0 L 3.21875 -7.546875 L 3.296875 -5.1875 L 3.296875 0 L 0.84375 0 L 0.84375 -11.796875 L 4.46875 -11.796875 L 6.578125 -4.25 L 8.6875 -11.796875 L 12.3125 -11.796875 L 12.3125 0 L 9.859375 0 L 9.859375 -5.1875 Z M 9.921875 -7.546875 "/></g></g></g><g fill="#253c75" fill-opacity="1"><g transform="translate(72.608912, 52.830353)"><g><path d="M 0.84375 -11.796875 L 8.0625 -11.796875 L 8.0625 -9.6875 L 3.296875 -9.6875 L 3.296875 -7.078125 L 7.3125 -7.078125 L 7.3125 -4.96875 L 3.296875 -4.96875 L 3.296875 -2.125 L 8.0625 -2.125 L 8.0625 0 L 0.84375 0 Z M 0.84375 -11.796875 "/></g></g></g><g fill="#253c75" fill-opacity="1"><g transform="translate(83.066247, 52.830353)"><g><path d="M 9.484375 -11.796875 L 9.484375 0 L 6.890625 0 L 3.078125 -7.328125 L 3.15625 -4.953125 L 3.15625 0 L 0.84375 0 L 0.84375 -11.796875 L 3.4375 -11.796875 L 7.234375 -4.484375 L 7.15625 -6.859375 L 7.15625 -11.796875 Z M 9.484375 -11.796875 "/></g></g></g><g fill="#253c75" fill-opacity="1"><g transform="translate(95.185562, 52.830353)"><g><path d="M 5.4375 -9.6875 L 5.4375 0 L 2.984375 0 L 2.984375 -9.6875 L 0.25 -9.6875 L 0.25 -11.796875 L 8.171875 -11.796875 L 8.171875 -9.6875 Z M 5.4375 -9.6875 "/></g></g></g><g fill="#253c75" fill-opacity="1"><g transform="translate(105.401156, 52.830353)"><g><path d="M 5.078125 0.203125 C 3.554688 0.203125 2.425781 -0.253906 1.6875 -1.171875 C 0.957031 -2.085938 0.59375 -3.5625 0.59375 -5.59375 L 0.59375 -6.203125 C 0.59375 -8.242188 0.957031 -9.71875 1.6875 -10.625 C 2.425781 -11.539062 3.554688 -12 5.078125 -12 C 6.609375 -12 7.742188 -11.539062 8.484375 -10.625 C 9.222656 -9.71875 9.59375 -8.242188 9.59375 -6.203125 L 9.59375 -5.59375 C 9.59375 -3.5625 9.222656 -2.085938 8.484375 -1.171875 C 7.742188 -0.253906 6.609375 0.203125 5.078125 0.203125 Z M 5.015625 -1.921875 L 5.15625 -1.921875 C 5.914062 -1.921875 6.425781 -2.238281 6.6875 -2.875 C 6.957031 -3.507812 7.09375 -4.414062 7.09375 -5.59375 L 7.09375 -6.203125 C 7.09375 -7.378906 6.957031 -8.285156 6.6875 -8.921875 C 6.425781 -9.554688 5.914062 -9.875 5.15625 -9.875 L 5.015625 -9.875 C 4.265625 -9.875 3.753906 -9.554688 3.484375 -8.921875 C 3.210938 -8.285156 3.078125 -7.378906 3.078125 -6.203125 L 3.078125 -5.59375 C 3.078125 -4.414062 3.210938 -3.507812 3.484375 -2.875 C 3.753906 -2.238281 4.265625 -1.921875 5.015625 -1.921875 Z M 5.015625 -1.921875 "/></g></g></g><g fill="#253c75" fill-opacity="1"><g transform="translate(117.369388, 52.830353)"><g><path d="M 3.296875 -4.234375 L 3.296875 0 L 0.84375 0 L 0.84375 -11.796875 L 4.71875 -11.796875 C 5.195312 -11.796875 5.675781 -11.75 6.15625 -11.65625 C 6.632812 -11.570312 7.078125 -11.40625 7.484375 -11.15625 C 7.890625 -10.90625 8.210938 -10.539062 8.453125 -10.0625 C 8.691406 -9.582031 8.8125 -8.953125 8.8125 -8.171875 L 8.8125 -7.859375 C 8.8125 -6.910156 8.632812 -6.179688 8.28125 -5.671875 C 7.9375 -5.171875 7.492188 -4.804688 6.953125 -4.578125 L 8.8125 0 L 6.171875 0 L 4.546875 -4.234375 Z M 3.296875 -6.359375 L 4.828125 -6.359375 C 5.046875 -6.359375 5.269531 -6.394531 5.5 -6.46875 C 5.738281 -6.550781 5.9375 -6.707031 6.09375 -6.9375 C 6.257812 -7.164062 6.34375 -7.5 6.34375 -7.9375 L 6.34375 -8.09375 C 6.34375 -8.53125 6.257812 -8.863281 6.09375 -9.09375 C 5.9375 -9.320312 5.738281 -9.476562 5.5 -9.5625 C 5.269531 -9.644531 5.046875 -9.6875 4.828125 -9.6875 L 3.296875 -9.6875 Z M 3.296875 -6.359375 "/></g></g></g><g fill="#253c75" fill-opacity="1"><g transform="translate(128.582167, 52.830353)"><g><path d="M 4.390625 -4.9375 C 3.109375 -5.101562 2.15625 -5.441406 1.53125 -5.953125 C 0.914062 -6.460938 0.609375 -7.25 0.609375 -8.3125 L 0.609375 -8.484375 C 0.609375 -9.554688 0.960938 -10.410156 1.671875 -11.046875 C 2.390625 -11.679688 3.421875 -12 4.765625 -12 C 6.210938 -12 7.269531 -11.664062 7.9375 -11 C 8.601562 -10.34375 8.9375 -9.320312 8.9375 -7.9375 L 8.9375 -7.625 L 6.484375 -7.625 C 6.484375 -8.394531 6.351562 -8.960938 6.09375 -9.328125 C 5.84375 -9.691406 5.40625 -9.875 4.78125 -9.875 L 4.640625 -9.875 C 4.148438 -9.875 3.765625 -9.753906 3.484375 -9.515625 C 3.210938 -9.273438 3.078125 -8.960938 3.078125 -8.578125 L 3.078125 -8.5 C 3.078125 -8.21875 3.128906 -7.972656 3.234375 -7.765625 C 3.347656 -7.566406 3.550781 -7.398438 3.84375 -7.265625 C 4.144531 -7.140625 4.582031 -7.035156 5.15625 -6.953125 C 6.445312 -6.785156 7.414062 -6.445312 8.0625 -5.9375 C 8.707031 -5.4375 9.03125 -4.640625 9.03125 -3.546875 L 9.03125 -3.390625 C 9.03125 -2.253906 8.664062 -1.367188 7.9375 -0.734375 C 7.207031 -0.109375 6.148438 0.203125 4.765625 0.203125 C 3.367188 0.203125 2.3125 -0.117188 1.59375 -0.765625 C 0.875 -1.421875 0.515625 -2.460938 0.515625 -3.890625 L 0.515625 -4.015625 L 2.96875 -4.015625 C 2.96875 -3.285156 3.113281 -2.753906 3.40625 -2.421875 C 3.707031 -2.085938 4.140625 -1.921875 4.703125 -1.921875 L 4.84375 -1.921875 C 5.40625 -1.921875 5.828125 -2.050781 6.109375 -2.3125 C 6.390625 -2.582031 6.53125 -2.914062 6.53125 -3.3125 L 6.53125 -3.390625 C 6.53125 -3.671875 6.46875 -3.910156 6.34375 -4.109375 C 6.226562 -4.316406 6.015625 -4.488281 5.703125 -4.625 C 5.398438 -4.757812 4.960938 -4.863281 4.390625 -4.9375 Z M 4.390625 -4.9375 "/></g></g></g><g fill="#253c75" fill-opacity="1"><g transform="translate(139.915822, 52.830353)"><g/></g></g><g fill="#253c75" fill-opacity="1"><g transform="translate(144.737534, 52.830353)"><g><path d="M 5.265625 0.203125 C 3.660156 0.203125 2.476562 -0.253906 1.71875 -1.171875 C 0.96875 -2.085938 0.59375 -3.5625 0.59375 -5.59375 L 0.59375 -6.203125 C 0.59375 -8.242188 0.960938 -9.71875 1.703125 -10.625 C 2.453125 -11.539062 3.585938 -12 5.109375 -12 C 6.523438 -12 7.59375 -11.675781 8.3125 -11.03125 C 9.039062 -10.394531 9.40625 -9.335938 9.40625 -7.859375 L 9.40625 -7.328125 L 6.953125 -7.328125 C 6.953125 -8.128906 6.835938 -8.753906 6.609375 -9.203125 C 6.390625 -9.648438 5.9375 -9.875 5.25 -9.875 L 5.109375 -9.875 C 4.578125 -9.875 4.160156 -9.734375 3.859375 -9.453125 C 3.566406 -9.171875 3.363281 -8.753906 3.25 -8.203125 C 3.132812 -7.648438 3.078125 -6.984375 3.078125 -6.203125 L 3.078125 -5.59375 C 3.078125 -4.8125 3.132812 -4.144531 3.25 -3.59375 C 3.375 -3.050781 3.585938 -2.632812 3.890625 -2.34375 C 4.191406 -2.0625 4.628906 -1.921875 5.203125 -1.921875 L 5.34375 -1.921875 C 5.695312 -1.921875 6.003906 -1.960938 6.265625 -2.046875 C 6.535156 -2.128906 6.757812 -2.238281 6.9375 -2.375 L 6.9375 -4.265625 L 5.390625 -4.265625 L 5.390625 -6.375 L 9.390625 -6.375 L 9.390625 -1.1875 C 8.960938 -0.820312 8.425781 -0.5 7.78125 -0.21875 C 7.132812 0.0625 6.296875 0.203125 5.265625 0.203125 Z M 5.265625 0.203125 "/></g></g></g><g fill="#253c75" fill-opacity="1"><g transform="translate(156.705766, 52.830353)"><g><path d="M 3.15625 -11.828125 L 6.53125 -11.828125 L 9.484375 0 L 6.859375 0 L 6.296875 -2.546875 L 3.40625 -2.546875 L 2.84375 0 L 0.21875 0 Z M 4.84375 -9 L 3.875 -4.65625 L 5.8125 -4.65625 Z M 4.84375 -9 "/></g></g></g><g fill="#253c75" fill-opacity="1"><g transform="translate(168.190507, 52.830353)"><g><path d="M 7.65625 0 L 0.84375 0 L 0.84375 -11.796875 L 3.296875 -11.796875 L 3.296875 -2.125 L 7.65625 -2.125 Z M 7.65625 0 "/></g></g></g><g fill="#253c75" fill-opacity="1"><g transform="translate(177.86218, 52.830353)"><g><path d="M 7.65625 0 L 0.84375 0 L 0.84375 -11.796875 L 3.296875 -11.796875 L 3.296875 -2.125 L 7.65625 -2.125 Z M 7.65625 0 "/></g></g></g><g fill="#253c75" fill-opacity="1"><g transform="translate(187.533854, 52.830353)"><g><path d="M 0.84375 -11.796875 L 8.0625 -11.796875 L 8.0625 -9.6875 L 3.296875 -9.6875 L 3.296875 -7.078125 L 7.3125 -7.078125 L 7.3125 -4.96875 L 3.296875 -4.96875 L 3.296875 -2.125 L 8.0625 -2.125 L 8.0625 0 L 0.84375 0 Z M 0.84375 -11.796875 "/></g></g></g><g fill="#253c75" fill-opacity="1"><g transform="translate(197.991191, 52.830353)"><g><path d="M 3.296875 -4.234375 L 3.296875 0 L 0.84375 0 L 0.84375 -11.796875 L 4.71875 -11.796875 C 5.195312 -11.796875 5.675781 -11.75 6.15625 -11.65625 C 6.632812 -11.570312 7.078125 -11.40625 7.484375 -11.15625 C 7.890625 -10.90625 8.210938 -10.539062 8.453125 -10.0625 C 8.691406 -9.582031 8.8125 -8.953125 8.8125 -8.171875 L 8.8125 -7.859375 C 8.8125 -6.910156 8.632812 -6.179688 8.28125 -5.671875 C 7.9375 -5.171875 7.492188 -4.804688 6.953125 -4.578125 L 8.8125 0 L 6.171875 0 L 4.546875 -4.234375 Z M 3.296875 -6.359375 L 4.828125 -6.359375 C 5.046875 -6.359375 5.269531 -6.394531 5.5 -6.46875 C 5.738281 -6.550781 5.9375 -6.707031 6.09375 -6.9375 C 6.257812 -7.164062 6.34375 -7.5 6.34375 -7.9375 L 6.34375 -8.09375 C 6.34375 -8.53125 6.257812 -8.863281 6.09375 -9.09375 C 5.9375 -9.320312 5.738281 -9.476562 5.5 -9.5625 C 5.269531 -9.644531 5.046875 -9.6875 4.828125 -9.6875 L 3.296875 -9.6875 Z M 3.296875 -6.359375 "/></g></g></g><g fill="#253c75" fill-opacity="1"><g transform="translate(209.20397, 52.830353)"><g><path d="M 5.953125 -3.609375 L 5.953125 0 L 3.515625 0 L 3.515625 -3.609375 L 0.125 -11.796875 L 2.796875 -11.796875 L 4.734375 -6.640625 L 6.65625 -11.796875 L 9.328125 -11.796875 Z M 5.953125 -3.609375 "/></g></g></g><g fill="#3a87c4" fill-opacity="1"><g transform="translate(56.272249, 37.495773)"><g><path d="M 1.34375 0 L 1.34375 -17.40625 L 5.53125 -17.40625 L 5.53125 -10.6875 L 12.640625 -10.6875 L 12.640625 -17.40625 L 16.828125 -17.40625 L 16.828125 0 L 12.640625 0 L 12.640625 -7.34375 L 5.53125 -7.34375 L 5.53125 0 Z M 1.34375 0 "/></g></g></g><g fill="#3a87c4" fill-opacity="1"><g transform="translate(74.433285, 37.495773)"><g><path d="M 0.125 0 L 6.4375 -17.40625 L 11.546875 -17.40625 L 17.828125 0 L 13.453125 0 L 12.328125 -3.421875 L 5.625 -3.421875 L 4.5 0 Z M 6.375 -6.375 L 11.5625 -6.375 L 9 -14.109375 L 8.953125 -14.109375 Z M 6.375 -6.375 "/></g></g></g><g fill="#3a87c4" fill-opacity="1"><g transform="translate(92.374339, 37.495773)"><g><path d="M 10.171875 0.609375 C 8.242188 0.609375 6.578125 0.234375 5.171875 -0.515625 C 3.765625 -1.273438 2.671875 -2.351562 1.890625 -3.75 C 1.117188 -5.144531 0.734375 -6.796875 0.734375 -8.703125 C 0.734375 -10.609375 1.097656 -12.257812 1.828125 -13.65625 C 2.566406 -15.050781 3.609375 -16.125 4.953125 -16.875 C 6.296875 -17.632812 7.878906 -18.015625 9.703125 -18.015625 C 11.140625 -18.015625 12.425781 -17.753906 13.5625 -17.234375 C 14.695312 -16.710938 15.628906 -15.972656 16.359375 -15.015625 C 17.085938 -14.054688 17.550781 -12.914062 17.75 -11.59375 L 13.9375 -10.640625 C 13.726562 -11.804688 13.253906 -12.734375 12.515625 -13.421875 C 11.785156 -14.109375 10.847656 -14.453125 9.703125 -14.453125 C 8.234375 -14.453125 7.066406 -13.929688 6.203125 -12.890625 C 5.347656 -11.859375 4.921875 -10.460938 4.921875 -8.703125 C 4.929688 -6.960938 5.410156 -5.570312 6.359375 -4.53125 C 7.316406 -3.5 8.601562 -2.984375 10.21875 -2.984375 C 11.5625 -2.984375 12.6875 -3.390625 13.59375 -4.203125 C 14.507812 -5.015625 15.070312 -6.109375 15.28125 -7.484375 L 19.203125 -6.9375 C 19.015625 -5.40625 18.519531 -4.070312 17.71875 -2.9375 C 16.925781 -1.8125 15.882812 -0.9375 14.59375 -0.3125 C 13.3125 0.300781 11.835938 0.609375 10.171875 0.609375 Z M 10.171875 0.609375 "/></g></g></g><g fill="#3a87c4" fill-opacity="1"><g transform="translate(111.977503, 37.495773)"><g><path d="M 1.34375 0 L 1.34375 -17.40625 L 5.53125 -17.40625 L 5.53125 -10.78125 L 5.578125 -10.765625 L 11.125 -17.40625 L 16.21875 -17.40625 L 10.203125 -10.703125 L 16.4375 0 L 11.390625 0 L 7.359375 -7.609375 L 5.53125 -5.65625 L 5.53125 0 Z M 1.34375 0 "/></g></g></g><g fill="#3a87c4" fill-opacity="1"><g transform="translate(128.525313, 37.495773)"><g><path d="M 1.34375 0 L 1.34375 -17.40625 L 5.53125 -17.40625 L 5.53125 -10.6875 L 12.640625 -10.6875 L 12.640625 -17.40625 L 16.828125 -17.40625 L 16.828125 0 L 12.640625 0 L 12.640625 -7.34375 L 5.53125 -7.34375 L 5.53125 0 Z M 1.34375 0 "/></g></g></g><g fill="#3a87c4" fill-opacity="1"><g transform="translate(146.686349, 37.495773)"><g><path d="M 1.34375 0 L 1.34375 -17.40625 L 9.5625 -17.40625 C 10.914062 -17.40625 12.097656 -17.164062 13.109375 -16.6875 C 14.117188 -16.207031 14.90625 -15.535156 15.46875 -14.671875 C 16.03125 -13.804688 16.3125 -12.796875 16.3125 -11.640625 C 16.3125 -10.484375 16.03125 -9.46875 15.46875 -8.59375 C 14.90625 -7.71875 14.113281 -7.039062 13.09375 -6.5625 C 12.070312 -6.082031 10.878906 -5.84375 9.515625 -5.84375 L 5.5 -5.84375 L 5.5 0 Z M 5.5 -8.953125 L 8.90625 -8.953125 C 9.882812 -8.953125 10.664062 -9.195312 11.25 -9.6875 C 11.832031 -10.1875 12.125 -10.835938 12.125 -11.640625 C 12.125 -12.453125 11.832031 -13.101562 11.25 -13.59375 C 10.675781 -14.082031 9.894531 -14.328125 8.90625 -14.328125 L 5.5 -14.328125 Z M 5.5 -8.953125 "/></g></g></g><g fill="#3a87c4" fill-opacity="1"><g transform="translate(163.478588, 37.495773)"><g><path d="M 10.171875 0.609375 C 8.242188 0.609375 6.578125 0.234375 5.171875 -0.515625 C 3.765625 -1.273438 2.671875 -2.351562 1.890625 -3.75 C 1.117188 -5.144531 0.734375 -6.796875 0.734375 -8.703125 C 0.734375 -10.609375 1.097656 -12.257812 1.828125 -13.65625 C 2.566406 -15.050781 3.609375 -16.125 4.953125 -16.875 C 6.296875 -17.632812 7.878906 -18.015625 9.703125 -18.015625 C 11.140625 -18.015625 12.425781 -17.753906 13.5625 -17.234375 C 14.695312 -16.710938 15.628906 -15.972656 16.359375 -15.015625 C 17.085938 -14.054688 17.550781 -12.914062 17.75 -11.59375 L 13.9375 -10.640625 C 13.726562 -11.804688 13.253906 -12.734375 12.515625 -13.421875 C 11.785156 -14.109375 10.847656 -14.453125 9.703125 -14.453125 C 8.234375 -14.453125 7.066406 -13.929688 6.203125 -12.890625 C 5.347656 -11.859375 4.921875 -10.460938 4.921875 -8.703125 C 4.929688 -6.960938 5.410156 -5.570312 6.359375 -4.53125 C 7.316406 -3.5 8.601562 -2.984375 10.21875 -2.984375 C 11.5625 -2.984375 12.6875 -3.390625 13.59375 -4.203125 C 14.507812 -5.015625 15.070312 -6.109375 15.28125 -7.484375 L 19.203125 -6.9375 C 19.015625 -5.40625 18.519531 -4.070312 17.71875 -2.9375 C 16.925781 -1.8125 15.882812 -0.9375 14.59375 -0.3125 C 13.3125 0.300781 11.835938 0.609375 10.171875 0.609375 Z M 10.171875 0.609375 "/></g></g></g></svg>