<svg xmlns="http://www.w3.org/2000/svg" xmlns:xlink="http://www.w3.org/1999/xlink" width="500" zoomAndPan="magnify" viewBox="0 0 375 374.999991" height="500" preserveAspectRatio="xMidYMid meet" version="1.0"><defs><g/><clipPath id="2157869165"><path d="M 29.695312 3.875 L 345.300781 3.875 L 345.300781 371.125 L 29.695312 371.125 Z M 29.695312 3.875 " clip-rule="nonzero"/></clipPath><clipPath id="806fb6f874"><path d="M 187.5 3.875 L 345.300781 95.6875 L 345.300781 279.3125 L 187.5 371.125 L 29.695312 279.3125 L 29.695312 95.6875 Z M 187.5 3.875 " clip-rule="nonzero"/></clipPath><clipPath id="103b607431"><path d="M 103.527344 56.417969 L 271.542969 56.417969 L 271.542969 225.273438 L 103.527344 225.273438 Z M 103.527344 56.417969 " clip-rule="nonzero"/></clipPath></defs><g clip-path="url(#2157869165)"><g clip-path="url(#806fb6f874)"><path stroke-linecap="butt" transform="matrix(0.844284, 0, 0, 0.844284, 29.696652, 3.875363)" fill="none" stroke-linejoin="miter" d="M 186.908001 -0.000430379 L 373.812962 108.74562 L 373.812962 326.237721 L 186.908001 434.983771 L -0.00158616 326.237721 L -0.00158616 108.74562 Z M 186.908001 -0.000430379 " stroke="#253c75" stroke-width="24.873163" stroke-opacity="1" stroke-miterlimit="4"/></g></g><g clip-path="url(#103b607431)"><path fill="#253c75" d="M 266.347656 218.144531 C 266.347656 219.246094 265.449219 220.148438 264.34375 220.148438 L 237.527344 220.148438 C 236.425781 220.148438 235.523438 219.246094 235.523438 218.144531 L 235.523438 171.183594 C 235.523438 168.816406 230.691406 154.074219 228.464844 150.335938 C 227.824219 149.257812 226.355469 147.386719 223.804688 144.167969 C 221.203125 140.882812 217.960938 136.796875 215.386719 133.113281 C 211.960938 128.203125 211.363281 126.328125 211.261719 125.789062 C 211.988281 124.472656 213.546875 123.40625 215.101562 123.164062 C 215.804688 123.054688 216.785156 123.074219 217.476562 123.789062 L 240.917969 147.886719 C 240.289062 157.035156 247.882812 164.617188 256.75 164.160156 L 261.539062 169.085938 C 264.523438 172.144531 266.347656 174.171875 266.347656 177.132812 Z M 210.59375 169.59375 C 213.046875 165.941406 217.992188 158.597656 222.738281 151.101562 L 217.054688 143.863281 L 206.074219 157.394531 C 203.207031 160.917969 200.546875 163.652344 197.988281 165.648438 C 195.207031 168.628906 191.25 170.492188 186.859375 170.492188 C 181.578125 170.492188 176.917969 167.792969 174.179688 163.699219 C 172.535156 162.164062 170.847656 160.332031 169.109375 158.199219 L 157.851562 144.367188 L 152.097656 151.710938 C 156.667969 158.820312 161.386719 165.777344 163.734375 169.234375 C 164.539062 170.425781 165.070312 171.210938 165.308594 171.578125 C 167.476562 174.890625 171.96875 187.414062 171.96875 189.515625 L 171.96875 218.847656 C 171.96875 219.539062 172.757812 220.148438 173.660156 220.148438 L 200.914062 220.148438 C 201.816406 220.148438 202.605469 219.539062 202.605469 218.847656 L 202.605469 189.515625 C 202.605469 187.414062 207.097656 174.890625 209.261719 171.578125 C 209.472656 171.253906 209.9375 170.570312 210.59375 169.59375 Z M 139.777344 171.183594 L 139.777344 218.144531 C 139.777344 219.246094 138.875 220.148438 137.769531 220.148438 L 110.957031 220.148438 C 109.851562 220.148438 108.953125 219.246094 108.953125 218.144531 L 108.953125 177.132812 C 108.953125 174.171875 110.78125 172.144531 113.757812 169.085938 L 118.542969 164.171875 C 118.617188 164.171875 118.699219 164.175781 118.773438 164.175781 C 127.46875 164.175781 134.433594 156.832031 134.003906 148.277344 L 157.824219 123.789062 C 158.515625 123.074219 159.5 123.054688 160.195312 123.164062 C 161.753906 123.40625 163.308594 124.472656 164.039062 125.792969 C 163.9375 126.332031 163.339844 128.203125 159.910156 133.113281 C 157.339844 136.796875 154.097656 140.882812 151.496094 144.167969 C 148.945312 147.386719 147.472656 149.257812 146.835938 150.335938 C 144.613281 154.074219 139.777344 168.820312 139.777344 171.183594 Z M 108.644531 148.929688 C 108.644531 154.519531 113.1875 159.058594 118.773438 159.058594 C 124.359375 159.058594 128.902344 154.519531 128.902344 148.929688 C 128.902344 143.347656 124.359375 138.804688 118.773438 138.804688 C 113.1875 138.804688 108.644531 143.347656 108.644531 148.929688 Z M 124.082031 125.898438 L 148.632812 125.898438 L 154.15625 120.222656 C 155.882812 118.441406 158.308594 117.691406 160.980469 118.109375 C 164.191406 118.609375 167.179688 120.730469 168.632812 123.53125 C 169.042969 124.210938 169.226562 124.988281 169.175781 125.898438 L 175.828125 125.898438 L 175.828125 109.882812 L 173.074219 109.882812 C 167.644531 109.882812 163.21875 105.460938 163.21875 100.027344 C 163.21875 94.589844 167.644531 90.167969 173.074219 90.167969 L 175.828125 90.167969 L 175.828125 74.15625 L 159.816406 74.15625 L 159.816406 76.902344 C 159.816406 82.339844 155.390625 86.761719 149.957031 86.761719 C 144.519531 86.761719 140.09375 82.339844 140.09375 76.902344 L 140.09375 74.15625 L 124.082031 74.15625 Z M 186.859375 145.121094 C 192.445312 145.121094 196.988281 149.664062 196.988281 155.246094 C 196.988281 157.765625 196.0625 160.074219 194.535156 161.847656 C 191.890625 163.84375 189.480469 164.804688 187.207031 164.804688 C 187.203125 164.804688 187.203125 164.804688 187.203125 164.804688 C 184.398438 164.804688 181.449219 163.394531 178.164062 160.429688 C 177.257812 158.910156 176.730469 157.140625 176.730469 155.246094 C 176.730469 149.664062 181.277344 145.121094 186.859375 145.121094 Z M 199.472656 125.898438 L 206.125 125.898438 C 206.074219 124.988281 206.257812 124.210938 206.667969 123.53125 C 208.125 120.730469 211.109375 118.609375 214.316406 118.109375 C 216.992188 117.691406 219.417969 118.441406 221.144531 120.222656 L 226.664062 125.898438 L 251.214844 125.898438 L 251.214844 74.15625 L 232.644531 74.15625 C 231.230469 74.15625 230.085938 73.007812 230.085938 71.597656 L 230.085938 66.285156 C 230.085938 63.671875 227.960938 61.542969 225.34375 61.542969 C 222.730469 61.542969 220.605469 63.671875 220.605469 66.285156 L 220.605469 71.597656 C 220.605469 73.007812 219.457031 74.15625 218.046875 74.15625 L 199.472656 74.15625 L 199.472656 92.726562 C 199.472656 94.140625 198.328125 95.285156 196.914062 95.285156 L 191.605469 95.285156 C 188.992188 95.285156 186.863281 97.410156 186.863281 100.027344 C 186.863281 102.640625 188.992188 104.765625 191.605469 104.765625 L 196.914062 104.765625 C 198.328125 104.765625 199.472656 105.914062 199.472656 107.324219 Z M 256.125 138.804688 C 250.535156 138.804688 245.996094 143.347656 245.996094 148.929688 C 245.996094 154.519531 250.535156 159.058594 256.125 159.058594 C 261.707031 159.058594 266.25 154.519531 266.25 148.929688 C 266.25 143.347656 261.707031 138.804688 256.125 138.804688 Z M 265.207031 165.519531 L 262.523438 162.761719 C 267.742188 160.335938 271.367188 155.054688 271.367188 148.929688 C 271.367188 140.527344 264.527344 133.6875 256.125 133.6875 C 250.152344 133.6875 244.976562 137.136719 242.472656 142.148438 L 231.640625 131.015625 L 253.773438 131.015625 C 255.1875 131.015625 256.332031 129.867188 256.332031 128.457031 L 256.332031 71.597656 C 256.332031 70.179688 255.1875 69.039062 253.773438 69.039062 L 235.203125 69.039062 L 235.203125 66.285156 C 235.203125 60.847656 230.78125 56.425781 225.34375 56.425781 C 219.910156 56.425781 215.488281 60.847656 215.488281 66.285156 L 215.488281 69.039062 L 196.914062 69.039062 C 195.503906 69.039062 194.359375 70.179688 194.359375 71.597656 L 194.359375 90.167969 L 191.605469 90.167969 C 186.171875 90.167969 181.746094 94.589844 181.746094 100.027344 C 181.746094 105.460938 186.171875 109.882812 191.605469 109.882812 L 194.359375 109.882812 L 194.359375 128.457031 C 194.359375 129.867188 195.503906 131.015625 196.914062 131.015625 L 207.972656 131.015625 C 209.246094 133.300781 211.1875 136.128906 213.851562 139.6875 L 202.066406 154.207031 C 201.53125 146.289062 194.917969 140.007812 186.859375 140.007812 C 179.105469 140.007812 172.691406 145.824219 171.742188 153.324219 L 161.0625 140.203125 C 163.929688 136.398438 165.996094 133.410156 167.324219 131.015625 L 178.386719 131.015625 C 179.800781 131.015625 180.945312 129.867188 180.945312 128.457031 L 180.945312 107.324219 C 180.945312 105.914062 179.800781 104.765625 178.386719 104.765625 L 173.074219 104.765625 C 170.464844 104.765625 168.335938 102.640625 168.335938 100.027344 C 168.335938 97.410156 170.464844 95.285156 173.074219 95.285156 L 178.386719 95.285156 C 179.800781 95.285156 180.945312 94.140625 180.945312 92.726562 L 180.945312 71.597656 C 180.945312 70.179688 179.800781 69.039062 178.386719 69.039062 L 157.257812 69.039062 C 155.84375 69.039062 154.699219 70.179688 154.699219 71.597656 L 154.699219 76.902344 C 154.699219 79.515625 152.570312 81.644531 149.957031 81.644531 C 147.339844 81.644531 145.210938 79.515625 145.210938 76.902344 L 145.210938 71.597656 C 145.210938 70.179688 144.070312 69.039062 142.652344 69.039062 L 121.523438 69.039062 C 120.113281 69.039062 118.964844 70.179688 118.964844 71.597656 L 118.964844 128.457031 C 118.964844 129.867188 120.113281 131.015625 121.523438 131.015625 L 143.65625 131.015625 L 132.554688 142.425781 C 130.109375 137.265625 124.851562 133.6875 118.773438 133.6875 C 110.367188 133.6875 103.527344 140.527344 103.527344 148.929688 C 103.527344 155.164062 107.285156 160.527344 112.652344 162.890625 L 110.09375 165.519531 C 107.019531 168.671875 103.835938 171.933594 103.835938 177.132812 L 103.835938 218.144531 C 103.835938 222.070312 107.03125 225.265625 110.957031 225.265625 L 137.769531 225.265625 C 141.695312 225.265625 144.890625 222.070312 144.890625 218.144531 L 144.890625 171.25 C 145.070312 169.730469 147.425781 162.117188 149.421875 156.992188 C 153.480469 163.234375 157.414062 169.039062 159.496094 172.109375 C 160.257812 173.234375 160.8125 174.046875 161.027344 174.378906 C 162.792969 177.074219 166.554688 187.75 166.855469 189.621094 L 166.855469 218.847656 C 166.855469 222.386719 169.90625 225.265625 173.660156 225.265625 L 200.914062 225.265625 C 204.667969 225.265625 207.71875 222.386719 207.71875 218.847656 L 207.71875 189.621094 C 208.019531 187.75 211.785156 177.074219 213.546875 174.378906 C 213.75 174.066406 214.203125 173.398438 214.835938 172.449219 C 217.046875 169.164062 221.265625 162.894531 225.5625 156.1875 C 227.613281 161.289062 230.21875 169.648438 230.410156 171.25 L 230.410156 218.144531 C 230.410156 222.070312 233.601562 225.265625 237.527344 225.265625 L 264.34375 225.265625 C 268.269531 225.265625 271.460938 222.070312 271.460938 218.144531 L 271.460938 177.132812 C 271.460938 171.933594 268.28125 168.671875 265.207031 165.519531 Z M 265.207031 165.519531 " fill-opacity="1" fill-rule="evenodd"/></g><g fill="#253c75" fill-opacity="1"><g transform="translate(92.835926, 286.495174)"><g><path d="M 11.671875 -8.875 L 9.1875 0 L 6.265625 0 L 3.78125 -8.875 L 3.875 -6.09375 L 3.875 0 L 1 0 L 1 -13.875 L 5.25 -13.875 L 7.734375 -5 L 10.203125 -13.875 L 14.46875 -13.875 L 14.46875 0 L 11.59375 0 L 11.59375 -6.09375 Z M 11.671875 -8.875 "/></g></g></g><g fill="#253c75" fill-opacity="1"><g transform="translate(110.394521, 286.495174)"><g><path d="M 1 -13.875 L 9.484375 -13.875 L 9.484375 -11.375 L 3.875 -11.375 L 3.875 -8.328125 L 8.59375 -8.328125 L 8.59375 -5.828125 L 3.875 -5.828125 L 3.875 -2.484375 L 9.484375 -2.484375 L 9.484375 0 L 1 0 Z M 1 -13.875 "/></g></g></g><g fill="#253c75" fill-opacity="1"><g transform="translate(122.693337, 286.495174)"><g><path d="M 11.15625 -13.875 L 11.15625 0 L 8.109375 0 L 3.625 -8.609375 L 3.71875 -5.8125 L 3.71875 0 L 1 0 L 1 -13.875 L 4.03125 -13.875 L 8.5 -5.265625 L 8.40625 -8.0625 L 8.40625 -13.875 Z M 11.15625 -13.875 "/></g></g></g><g fill="#253c75" fill-opacity="1"><g transform="translate(136.9468, 286.495174)"><g><path d="M 6.390625 -11.375 L 6.390625 0 L 3.5 0 L 3.5 -11.375 L 0.296875 -11.375 L 0.296875 -13.875 L 9.609375 -13.875 L 9.609375 -11.375 Z M 6.390625 -11.375 "/></g></g></g><g fill="#253c75" fill-opacity="1"><g transform="translate(148.961307, 286.495174)"><g><path d="M 5.96875 0.234375 C 4.1875 0.234375 2.859375 -0.300781 1.984375 -1.375 C 1.117188 -2.445312 0.6875 -4.179688 0.6875 -6.578125 L 0.6875 -7.296875 C 0.6875 -9.703125 1.117188 -11.4375 1.984375 -12.5 C 2.859375 -13.5625 4.1875 -14.09375 5.96875 -14.09375 C 7.769531 -14.09375 9.101562 -13.5625 9.96875 -12.5 C 10.832031 -11.4375 11.265625 -9.703125 11.265625 -7.296875 L 11.265625 -6.578125 C 11.265625 -4.179688 10.832031 -2.445312 9.96875 -1.375 C 9.101562 -0.300781 7.769531 0.234375 5.96875 0.234375 Z M 5.90625 -2.265625 L 6.0625 -2.265625 C 6.945312 -2.265625 7.546875 -2.632812 7.859375 -3.375 C 8.179688 -4.125 8.34375 -5.191406 8.34375 -6.578125 L 8.34375 -7.296875 C 8.34375 -8.679688 8.179688 -9.742188 7.859375 -10.484375 C 7.546875 -11.234375 6.945312 -11.609375 6.0625 -11.609375 L 5.90625 -11.609375 C 5.007812 -11.609375 4.398438 -11.234375 4.078125 -10.484375 C 3.765625 -9.742188 3.609375 -8.679688 3.609375 -7.296875 L 3.609375 -6.578125 C 3.609375 -5.191406 3.765625 -4.125 4.078125 -3.375 C 4.398438 -2.632812 5.007812 -2.265625 5.90625 -2.265625 Z M 5.90625 -2.265625 "/></g></g></g><g fill="#253c75" fill-opacity="1"><g transform="translate(163.037082, 286.495174)"><g><path d="M 3.875 -4.984375 L 3.875 0 L 1 0 L 1 -13.875 L 5.546875 -13.875 C 6.117188 -13.875 6.6875 -13.816406 7.25 -13.703125 C 7.8125 -13.597656 8.328125 -13.398438 8.796875 -13.109375 C 9.273438 -12.816406 9.65625 -12.390625 9.9375 -11.828125 C 10.21875 -11.265625 10.359375 -10.523438 10.359375 -9.609375 L 10.359375 -9.25 C 10.359375 -8.132812 10.148438 -7.273438 9.734375 -6.671875 C 9.328125 -6.078125 8.804688 -5.648438 8.171875 -5.390625 L 10.359375 0 L 7.25 0 L 5.359375 -4.984375 Z M 3.875 -7.46875 L 5.671875 -7.46875 C 5.929688 -7.46875 6.195312 -7.515625 6.46875 -7.609375 C 6.738281 -7.703125 6.96875 -7.878906 7.15625 -8.140625 C 7.351562 -8.410156 7.453125 -8.804688 7.453125 -9.328125 L 7.453125 -9.515625 C 7.453125 -10.035156 7.351562 -10.425781 7.15625 -10.6875 C 6.96875 -10.957031 6.738281 -11.140625 6.46875 -11.234375 C 6.195312 -11.328125 5.929688 -11.375 5.671875 -11.375 L 3.875 -11.375 Z M 3.875 -7.46875 "/></g></g></g><g fill="#253c75" fill-opacity="1"><g transform="translate(176.224372, 286.495174)"><g><path d="M 5.15625 -5.796875 C 3.644531 -5.992188 2.523438 -6.390625 1.796875 -6.984375 C 1.078125 -7.585938 0.71875 -8.519531 0.71875 -9.78125 L 0.71875 -9.96875 C 0.71875 -11.226562 1.132812 -12.226562 1.96875 -12.96875 C 2.8125 -13.71875 4.019531 -14.09375 5.59375 -14.09375 C 7.300781 -14.09375 8.546875 -13.703125 9.328125 -12.921875 C 10.117188 -12.148438 10.515625 -10.953125 10.515625 -9.328125 L 10.515625 -8.96875 L 7.625 -8.96875 C 7.625 -9.875 7.472656 -10.539062 7.171875 -10.96875 C 6.867188 -11.394531 6.351562 -11.609375 5.625 -11.609375 L 5.453125 -11.609375 C 4.878906 -11.609375 4.429688 -11.460938 4.109375 -11.171875 C 3.785156 -10.890625 3.625 -10.523438 3.625 -10.078125 L 3.625 -10 C 3.625 -9.664062 3.6875 -9.378906 3.8125 -9.140625 C 3.9375 -8.898438 4.171875 -8.703125 4.515625 -8.546875 C 4.867188 -8.398438 5.382812 -8.273438 6.0625 -8.171875 C 7.582031 -7.972656 8.71875 -7.578125 9.46875 -6.984375 C 10.226562 -6.390625 10.609375 -5.445312 10.609375 -4.15625 L 10.609375 -3.984375 C 10.609375 -2.648438 10.175781 -1.613281 9.3125 -0.875 C 8.457031 -0.132812 7.21875 0.234375 5.59375 0.234375 C 3.957031 0.234375 2.71875 -0.144531 1.875 -0.90625 C 1.03125 -1.675781 0.609375 -2.894531 0.609375 -4.5625 L 0.609375 -4.734375 L 3.484375 -4.734375 C 3.484375 -3.867188 3.65625 -3.238281 4 -2.84375 C 4.351562 -2.457031 4.863281 -2.265625 5.53125 -2.265625 L 5.6875 -2.265625 C 6.351562 -2.265625 6.851562 -2.421875 7.1875 -2.734375 C 7.519531 -3.046875 7.6875 -3.429688 7.6875 -3.890625 L 7.6875 -3.984375 C 7.6875 -4.316406 7.613281 -4.597656 7.46875 -4.828125 C 7.320312 -5.066406 7.066406 -5.265625 6.703125 -5.421875 C 6.347656 -5.585938 5.832031 -5.710938 5.15625 -5.796875 Z M 5.15625 -5.796875 "/></g></g></g><g fill="#253c75" fill-opacity="1"><g transform="translate(189.553824, 286.495174)"><g/></g></g><g fill="#253c75" fill-opacity="1"><g transform="translate(195.224614, 286.495174)"><g><path d="M 6.1875 0.234375 C 4.300781 0.234375 2.910156 -0.300781 2.015625 -1.375 C 1.128906 -2.445312 0.6875 -4.179688 0.6875 -6.578125 L 0.6875 -7.296875 C 0.6875 -9.703125 1.125 -11.4375 2 -12.5 C 2.882812 -13.5625 4.222656 -14.09375 6.015625 -14.09375 C 7.671875 -14.09375 8.925781 -13.71875 9.78125 -12.96875 C 10.632812 -12.21875 11.0625 -10.976562 11.0625 -9.25 L 11.0625 -8.609375 L 8.171875 -8.609375 C 8.171875 -9.554688 8.035156 -10.289062 7.765625 -10.8125 C 7.503906 -11.34375 6.972656 -11.609375 6.171875 -11.609375 L 6.015625 -11.609375 C 5.378906 -11.609375 4.882812 -11.441406 4.53125 -11.109375 C 4.1875 -10.773438 3.945312 -10.285156 3.8125 -9.640625 C 3.6875 -8.992188 3.625 -8.210938 3.625 -7.296875 L 3.625 -6.578125 C 3.625 -5.648438 3.691406 -4.863281 3.828125 -4.21875 C 3.960938 -3.582031 4.207031 -3.097656 4.5625 -2.765625 C 4.925781 -2.429688 5.441406 -2.265625 6.109375 -2.265625 L 6.28125 -2.265625 C 6.695312 -2.265625 7.0625 -2.3125 7.375 -2.40625 C 7.6875 -2.507812 7.945312 -2.640625 8.15625 -2.796875 L 8.15625 -5.015625 L 6.328125 -5.015625 L 6.328125 -7.5 L 11.046875 -7.5 L 11.046875 -1.390625 C 10.535156 -0.960938 9.898438 -0.582031 9.140625 -0.25 C 8.378906 0.0703125 7.394531 0.234375 6.1875 0.234375 Z M 6.1875 0.234375 "/></g></g></g><g fill="#253c75" fill-opacity="1"><g transform="translate(209.300389, 286.495174)"><g><path d="M 3.71875 -13.90625 L 7.6875 -13.90625 L 11.15625 0 L 8.078125 0 L 7.390625 -2.984375 L 4 -2.984375 L 3.34375 0 L 0.25 0 Z M 5.6875 -10.578125 L 4.546875 -5.484375 L 6.828125 -5.484375 Z M 5.6875 -10.578125 "/></g></g></g><g fill="#253c75" fill-opacity="1"><g transform="translate(222.807532, 286.495174)"><g><path d="M 9 0 L 1 0 L 1 -13.875 L 3.875 -13.875 L 3.875 -2.484375 L 9 -2.484375 Z M 9 0 "/></g></g></g><g fill="#253c75" fill-opacity="1"><g transform="translate(234.182337, 286.495174)"><g><path d="M 9 0 L 1 0 L 1 -13.875 L 3.875 -13.875 L 3.875 -2.484375 L 9 -2.484375 Z M 9 0 "/></g></g></g><g fill="#253c75" fill-opacity="1"><g transform="translate(245.557141, 286.495174)"><g><path d="M 1 -13.875 L 9.484375 -13.875 L 9.484375 -11.375 L 3.875 -11.375 L 3.875 -8.328125 L 8.59375 -8.328125 L 8.59375 -5.828125 L 3.875 -5.828125 L 3.875 -2.484375 L 9.484375 -2.484375 L 9.484375 0 L 1 0 Z M 1 -13.875 "/></g></g></g><g fill="#253c75" fill-opacity="1"><g transform="translate(257.855961, 286.495174)"><g><path d="M 3.875 -4.984375 L 3.875 0 L 1 0 L 1 -13.875 L 5.546875 -13.875 C 6.117188 -13.875 6.6875 -13.816406 7.25 -13.703125 C 7.8125 -13.597656 8.328125 -13.398438 8.796875 -13.109375 C 9.273438 -12.816406 9.65625 -12.390625 9.9375 -11.828125 C 10.21875 -11.265625 10.359375 -10.523438 10.359375 -9.609375 L 10.359375 -9.25 C 10.359375 -8.132812 10.148438 -7.273438 9.734375 -6.671875 C 9.328125 -6.078125 8.804688 -5.648438 8.171875 -5.390625 L 10.359375 0 L 7.25 0 L 5.359375 -4.984375 Z M 3.875 -7.46875 L 5.671875 -7.46875 C 5.929688 -7.46875 6.195312 -7.515625 6.46875 -7.609375 C 6.738281 -7.703125 6.96875 -7.878906 7.15625 -8.140625 C 7.351562 -8.410156 7.453125 -8.804688 7.453125 -9.328125 L 7.453125 -9.515625 C 7.453125 -10.035156 7.351562 -10.425781 7.15625 -10.6875 C 6.96875 -10.957031 6.738281 -11.140625 6.46875 -11.234375 C 6.195312 -11.328125 5.929688 -11.375 5.671875 -11.375 L 3.875 -11.375 Z M 3.875 -7.46875 "/></g></g></g><g fill="#253c75" fill-opacity="1"><g transform="translate(271.043251, 286.495174)"><g><path d="M 7 -4.25 L 7 0 L 4.125 0 L 4.125 -4.25 L 0.140625 -13.875 L 3.296875 -13.875 L 5.5625 -7.8125 L 7.828125 -13.875 L 10.96875 -13.875 Z M 7 -4.25 "/></g></g></g><g fill="#3a87c4" fill-opacity="1"><g transform="translate(88.256471, 262.026527)"><g><path d="M 2.109375 0 L 2.109375 -27.25 L 8.640625 -27.25 L 8.640625 -16.71875 L 19.78125 -16.71875 L 19.78125 -27.25 L 26.328125 -27.25 L 26.328125 0 L 19.78125 0 L 19.78125 -11.484375 L 8.640625 -11.484375 L 8.640625 0 Z M 2.109375 0 "/></g></g></g><g fill="#3a87c4" fill-opacity="1"><g transform="translate(116.681057, 262.026527)"><g><path d="M 0.1875 0 L 10.0625 -27.25 L 18.0625 -27.25 L 27.890625 0 L 21.046875 0 L 19.28125 -5.359375 L 8.796875 -5.359375 L 7.046875 0 Z M 9.984375 -9.984375 L 18.09375 -9.984375 L 14.078125 -22.078125 L 14 -22.078125 Z M 9.984375 -9.984375 "/></g></g></g><g fill="#3a87c4" fill-opacity="1"><g transform="translate(144.761339, 262.026527)"><g><path d="M 15.921875 0.953125 C 12.910156 0.953125 10.300781 0.359375 8.09375 -0.828125 C 5.882812 -2.015625 4.171875 -3.695312 2.953125 -5.875 C 1.742188 -8.050781 1.140625 -10.632812 1.140625 -13.625 C 1.140625 -16.601562 1.710938 -19.179688 2.859375 -21.359375 C 4.015625 -23.546875 5.644531 -25.234375 7.75 -26.421875 C 9.851562 -27.609375 12.332031 -28.203125 15.1875 -28.203125 C 17.4375 -28.203125 19.445312 -27.789062 21.21875 -26.96875 C 22.988281 -26.15625 24.445312 -24.992188 25.59375 -23.484375 C 26.75 -21.984375 27.476562 -20.203125 27.78125 -18.140625 L 21.8125 -16.640625 C 21.476562 -18.484375 20.738281 -19.9375 19.59375 -21 C 18.445312 -22.070312 16.976562 -22.609375 15.1875 -22.609375 C 12.894531 -22.609375 11.070312 -21.796875 9.71875 -20.171875 C 8.363281 -18.554688 7.6875 -16.375 7.6875 -13.625 C 7.71875 -10.894531 8.476562 -8.71875 9.96875 -7.09375 C 11.457031 -5.476562 13.46875 -4.671875 16 -4.671875 C 18.09375 -4.671875 19.851562 -5.304688 21.28125 -6.578125 C 22.707031 -7.859375 23.585938 -9.566406 23.921875 -11.703125 L 30.03125 -10.875 C 29.757812 -8.46875 29 -6.378906 27.75 -4.609375 C 26.5 -2.835938 24.863281 -1.46875 22.84375 -0.5 C 20.832031 0.46875 18.523438 0.953125 15.921875 0.953125 Z M 15.921875 0.953125 "/></g></g></g><g fill="#3a87c4" fill-opacity="1"><g transform="translate(175.44306, 262.026527)"><g><path d="M 2.109375 0 L 2.109375 -27.25 L 8.640625 -27.25 L 8.640625 -16.875 L 8.71875 -16.84375 L 17.40625 -27.25 L 25.375 -27.25 L 15.953125 -16.765625 L 25.71875 0 L 17.828125 0 L 11.515625 -11.90625 L 8.640625 -8.84375 L 8.640625 0 Z M 2.109375 0 "/></g></g></g><g fill="#3a87c4" fill-opacity="1"><g transform="translate(201.342718, 262.026527)"><g><path d="M 2.109375 0 L 2.109375 -27.25 L 8.640625 -27.25 L 8.640625 -16.71875 L 19.78125 -16.71875 L 19.78125 -27.25 L 26.328125 -27.25 L 26.328125 0 L 19.78125 0 L 19.78125 -11.484375 L 8.640625 -11.484375 L 8.640625 0 Z M 2.109375 0 "/></g></g></g><g fill="#3a87c4" fill-opacity="1"><g transform="translate(229.767304, 262.026527)"><g><path d="M 2.109375 0 L 2.109375 -27.25 L 14.96875 -27.25 C 17.082031 -27.25 18.929688 -26.867188 20.515625 -26.109375 C 22.097656 -25.359375 23.328125 -24.304688 24.203125 -22.953125 C 25.078125 -21.609375 25.515625 -20.03125 25.515625 -18.21875 C 25.515625 -16.40625 25.078125 -14.816406 24.203125 -13.453125 C 23.328125 -12.085938 22.085938 -11.023438 20.484375 -10.265625 C 18.890625 -9.515625 17.023438 -9.140625 14.890625 -9.140625 L 8.609375 -9.140625 L 8.609375 0 Z M 8.609375 -14 L 13.921875 -14 C 15.453125 -14 16.675781 -14.390625 17.59375 -15.171875 C 18.519531 -15.953125 18.984375 -16.96875 18.984375 -18.21875 C 18.984375 -19.488281 18.53125 -20.503906 17.625 -21.265625 C 16.71875 -22.035156 15.484375 -22.421875 13.921875 -22.421875 L 8.609375 -22.421875 Z M 8.609375 -14 "/></g></g></g><g fill="#3a87c4" fill-opacity="1"><g transform="translate(256.049529, 262.026527)"><g><path d="M 15.921875 0.953125 C 12.910156 0.953125 10.300781 0.359375 8.09375 -0.828125 C 5.882812 -2.015625 4.171875 -3.695312 2.953125 -5.875 C 1.742188 -8.050781 1.140625 -10.632812 1.140625 -13.625 C 1.140625 -16.601562 1.710938 -19.179688 2.859375 -21.359375 C 4.015625 -23.546875 5.644531 -25.234375 7.75 -26.421875 C 9.851562 -27.609375 12.332031 -28.203125 15.1875 -28.203125 C 17.4375 -28.203125 19.445312 -27.789062 21.21875 -26.96875 C 22.988281 -26.15625 24.445312 -24.992188 25.59375 -23.484375 C 26.75 -21.984375 27.476562 -20.203125 27.78125 -18.140625 L 21.8125 -16.640625 C 21.476562 -18.484375 20.738281 -19.9375 19.59375 -21 C 18.445312 -22.070312 16.976562 -22.609375 15.1875 -22.609375 C 12.894531 -22.609375 11.070312 -21.796875 9.71875 -20.171875 C 8.363281 -18.554688 7.6875 -16.375 7.6875 -13.625 C 7.71875 -10.894531 8.476562 -8.71875 9.96875 -7.09375 C 11.457031 -5.476562 13.46875 -4.671875 16 -4.671875 C 18.09375 -4.671875 19.851562 -5.304688 21.28125 -6.578125 C 22.707031 -7.859375 23.585938 -9.566406 23.921875 -11.703125 L 30.03125 -10.875 C 29.757812 -8.46875 29 -6.378906 27.75 -4.609375 C 26.5 -2.835938 24.863281 -1.46875 22.84375 -0.5 C 20.832031 0.46875 18.523438 0.953125 15.921875 0.953125 Z M 15.921875 0.953125 "/></g></g></g></svg>